<?xml version="1.0" encoding="UTF-8" standalone="no"?>
<!-- Created with Inkscape (http://www.inkscape.org/) -->

<svg
   xmlns:dc="http://purl.org/dc/elements/1.1/"
   xmlns:cc="http://creativecommons.org/ns#"
   xmlns:rdf="http://www.w3.org/1999/02/22-rdf-syntax-ns#"
   xmlns:svg="http://www.w3.org/2000/svg"
   xmlns="http://www.w3.org/2000/svg"
   xmlns:sodipodi="http://sodipodi.sourceforge.net/DTD/sodipodi-0.dtd"
   xmlns:inkscape="http://www.inkscape.org/namespaces/inkscape"
   width="114.04741mm"
   height="64.444664mm"
   viewBox="0 0 114.04741 64.444664"
   version="1.1"
   id="svg8"
   inkscape:version="0.92.4 (5da689c313, 2019-01-14)"
   sodipodi:docname="hpi.svg">
  <defs
     id="defs2">
    <clipPath
       id="clipPath873"
       clipPathUnits="userSpaceOnUse">
      <path
         inkscape:connector-curvature="0"
         id="path871"
         d="M 165.827,208.503 H 489.111 V 391.181 H 165.827 Z" />
    </clipPath>
  </defs>
  <sodipodi:namedview
     id="base"
     pagecolor="#ffffff"
     bordercolor="#666666"
     borderopacity="1.0"
     inkscape:pageopacity="0.0"
     inkscape:pageshadow="2"
     inkscape:zoom="1.4"
     inkscape:cx="214.14775"
     inkscape:cy="-59.49368"
     inkscape:document-units="mm"
     inkscape:current-layer="g823"
     showgrid="false"
     fit-margin-top="0"
     fit-margin-left="0"
     fit-margin-right="0"
     fit-margin-bottom="0"
     inkscape:window-width="2560"
     inkscape:window-height="1361"
     inkscape:window-x="1911"
     inkscape:window-y="-9"
     inkscape:window-maximized="1" />
  <metadata
     id="metadata5">
    <rdf:RDF>
      <cc:Work
         rdf:about="">
        <dc:format>image/svg+xml</dc:format>
        <dc:type
           rdf:resource="http://purl.org/dc/dcmitype/StillImage" />
        <dc:title></dc:title>
      </cc:Work>
    </rdf:RDF>
  </metadata>
  <g
     inkscape:label="Layer 1"
     inkscape:groupmode="layer"
     id="layer1"
     transform="translate(-62.206018,-183.27982)">
    <g
       transform="matrix(0.35277777,0,0,-0.35277777,3.705939,321.27978)"
       inkscape:label="auszug_design_manual"
       id="g823">
      <g
         id="g867">
        <g
           clip-path="url(#clipPath873)"
           id="g869">
          <g
             transform="translate(485.973,245.5896)"
             id="g875">
            <path
               inkscape:connector-curvature="0"
               id="path877"
               style="fill:#595f62;fill-opacity:1;fill-rule:nonzero;stroke:none"
               d="M 0,0 H -2.332 C -3.916,0 -4.05,0.26 -4.05,2.439 v 13.68 h 3.96 c 0.485,0 0.879,0.391 0.879,0.868 v 2.571 c 0,0.479 -0.394,0.871 -0.879,0.871 h -3.96 v 4.489 c 0,0.433 -0.307,0.652 -0.701,0.652 H -4.929 L -9.018,24.874 C -9.503,24.786 -9.9,24.482 -9.9,24.002 v -3.573 h -4.136 c -0.484,0 -0.879,-0.392 -0.879,-0.871 v -1.96 c 0,-0.479 0.395,-0.783 0.879,-0.871 L -9.9,16.119 V 2.439 c 0,-5.837 2.024,-6.924 6.997,-6.924 0.967,0 1.934,0.128 2.991,0.303 0.572,0.089 0.835,0.349 0.835,0.784 v 2.746 C 0.923,-0.216 0.57,0 0,0 m -20.855,20.429 h -4.047 c -0.484,0 -0.879,-0.435 -0.879,-0.915 V 2.091 c -1.233,-0.652 -3.346,-1.743 -4.971,-1.743 -1.366,0 -2.113,0.263 -2.73,0.785 -0.835,0.741 -1.011,2.005 -1.011,4.181 v 14.2 c 0,0.48 -0.396,0.915 -0.879,0.915 h -4.05 c -0.484,0 -0.879,-0.435 -0.879,-0.915 v -14.2 c 0,-3.615 0.573,-6.317 2.199,-7.928 1.277,-1.263 3.213,-1.828 5.413,-1.828 2.816,0 4.619,0.696 6.908,2.176 v -1 c 0,-0.48 0.395,-0.872 0.879,-0.872 h 4.047 c 0.486,0 0.879,0.392 0.879,0.872 v 22.78 c 0,0.48 -0.393,0.915 -0.879,0.915 M -46.504,0 h -2.331 c -1.585,0 -1.717,0.26 -1.717,2.439 v 13.68 h 3.96 c 0.484,0 0.882,0.391 0.882,0.868 v 2.571 c 0,0.479 -0.398,0.871 -0.882,0.871 h -3.96 v 4.489 c 0,0.433 -0.309,0.652 -0.704,0.652 h -0.175 l -4.094,-0.696 c -0.483,-0.088 -0.879,-0.392 -0.879,-0.872 v -3.573 h -4.135 c -0.485,0 -0.879,-0.392 -0.879,-0.871 v -1.96 c 0,-0.479 0.394,-0.783 0.879,-0.871 l 4.135,-0.608 V 2.439 c 0,-5.837 2.024,-6.924 6.996,-6.924 0.968,0 1.937,0.128 2.994,0.303 0.57,0.089 0.833,0.349 0.833,0.784 v 2.746 c 0,0.436 -0.351,0.652 -0.923,0.652 m -20.854,29.272 h -4.268 c -0.482,0 -0.922,-0.392 -0.922,-0.871 v -3.834 c 0,-0.479 0.44,-0.871 0.922,-0.871 h 4.268 c 0.484,0 0.879,0.392 0.879,0.871 v 3.834 c 0,0.479 -0.395,0.871 -0.879,0.871 m -0.13,-8.843 h -4.049 c -0.485,0 -0.88,-0.392 -0.88,-0.871 v -22.78 c 0,-0.481 0.395,-0.916 0.88,-0.916 h 4.049 c 0.482,0 0.88,0.435 0.88,0.916 v 22.78 c 0,0.479 -0.398,0.871 -0.88,0.871 M -78.751,0 h -2.331 c -1.586,0 -1.719,0.26 -1.719,2.439 v 13.68 h 3.96 c 0.484,0 0.882,0.391 0.882,0.868 v 2.571 c 0,0.479 -0.398,0.871 -0.882,0.871 h -3.96 v 4.489 c 0,0.433 -0.305,0.652 -0.702,0.652 h -0.174 l -4.092,-0.696 c -0.488,-0.088 -0.882,-0.392 -0.882,-0.872 v -3.573 h -4.136 c -0.482,0 -0.879,-0.392 -0.879,-0.871 v -1.96 c 0,-0.479 0.397,-0.783 0.879,-0.871 l 4.136,-0.608 V 2.439 c 0,-5.837 2.023,-6.924 6.994,-6.924 0.969,0 1.94,0.128 2.993,0.303 0.573,0.089 0.835,0.349 0.835,0.784 v 2.746 c 0,0.436 -0.352,0.652 -0.922,0.652 m -22.878,8.931 -5.765,3.482 c -1.101,0.656 -1.761,1.092 -1.761,1.785 0,1.353 0.926,1.833 3.04,1.833 2.506,0 6.025,-0.348 7.258,-0.523 h 0.176 c 0.439,0 0.705,0.304 0.705,0.827 v 2.527 c 0,0.523 -0.266,0.871 -0.794,1.003 -2.246,0.477 -4.267,0.869 -7.831,0.869 -5.586,0 -8.36,-2.177 -8.36,-6.536 0,-2.527 1.541,-4.703 3.697,-6.01 l 6.028,-3.658 c 1.407,-0.871 1.935,-1.392 1.935,-2.223 0,-1.174 -0.396,-2.091 -3.124,-2.091 -1.32,0 -5.28,0.22 -7.391,0.48 h -0.178 c -0.438,0 -0.746,-0.348 -0.746,-0.696 v -2.614 c 0,-0.524 0.308,-0.872 0.836,-1 2.464,-0.655 6.159,-0.871 7.876,-0.871 5.762,0 8.621,3.005 8.621,6.792 0,2.223 -0.528,4.401 -4.222,6.624 m -27.101,11.803 c -2.903,0 -4.577,-0.478 -7.127,-2.091 v 0.915 c 0,0.479 -0.396,0.871 -0.882,0.871 h -3.828 c -0.484,0 -0.879,-0.392 -0.879,-0.871 v -22.78 c 0,-0.481 0.395,-0.916 0.879,-0.916 h 4.05 c 0.484,0 0.879,0.435 0.879,0.916 v 17.51 c 1.847,0.959 3.476,1.568 4.971,1.568 3.387,0 3.741,-1.088 3.741,-4.878 v -14.2 c 0,-0.481 0.395,-0.916 0.879,-0.916 H -122 c 0.486,0 0.882,0.435 0.882,0.916 v 14.2 c 0,5.532 -1.275,9.756 -7.612,9.756 m -21.074,7.494 h -4.355 c -0.484,0 -0.879,-0.351 -0.879,-0.828 V -3.266 c 0,-0.48 0.395,-0.872 0.879,-0.872 h 4.355 c 0.484,0 0.879,0.392 0.879,0.872 V 27.4 c 0,0.477 -0.395,0.828 -0.879,0.828 M 2.266,62.974 c -1.745,0 -4.097,-0.436 -6.231,-2.091 v 0.915 c 0,0.479 -0.392,0.871 -0.869,0.871 h -3.79 c -0.481,0 -0.873,-0.392 -0.873,-0.871 v -22.78 c 0,-0.48 0.392,-0.916 0.873,-0.916 h 4.007 c 0.479,0 0.871,0.436 0.871,0.916 v 17.511 c 1.831,0.957 3.659,1.567 6.012,1.567 0.477,0 0.872,0.391 0.872,0.87 v 3.139 c 0,0.476 -0.395,0.869 -0.872,0.869 M -29.14,52.651 c 0,3.441 1.959,5.358 4.661,5.358 2.699,0 4.573,-1.96 4.573,-5.358 v -0.176 h -9.234 z m 14.154,-4.27 c 0.611,0 0.871,0.392 0.871,1.091 v 2.439 c 0,6.488 -3.656,11.063 -10.364,11.063 -6.665,0 -10.455,-4.267 -10.455,-11.063 v -3.223 c 0,-8.583 6.183,-10.934 10.54,-10.934 3.921,0 5.621,0.217 8.451,0.74 0.784,0.132 0.915,0.436 0.915,1.132 v 2.875 c 0,0.435 -0.35,0.654 -0.786,0.654 h -0.129 c -1.828,-0.175 -4.834,-0.435 -8.015,-0.435 -4.182,0 -5.229,3.006 -5.229,5.532 v 0.129 z m -24.565,-9.363 v 14.2 c 0,5.533 -1.263,9.756 -7.536,9.756 -2.874,0 -4.532,-0.477 -7.058,-2.091 v 0.915 c 0,0.479 -0.392,0.871 -0.87,0.871 h -3.79 c -0.479,0 -0.871,-0.392 -0.871,-0.871 v -22.78 c 0,-0.48 0.392,-0.916 0.871,-0.916 h 4.007 c 0.477,0 0.869,0.436 0.869,0.916 v 17.511 c 1.833,0.957 3.444,1.567 4.924,1.567 3.354,0 3.703,-1.088 3.703,-4.878 v -14.2 c 0,-0.48 0.392,-0.916 0.871,-0.916 h 4.009 c 0.479,0 0.871,0.436 0.871,0.916 m -25.745,3.222 h -2.308 c -1.569,0 -1.699,0.261 -1.699,2.439 v 13.678 h 3.919 c 0.48,0 0.872,0.394 0.872,0.871 v 2.57 c 0,0.479 -0.392,0.871 -0.872,0.871 h -3.919 v 4.487 c 0,0.436 -0.306,0.653 -0.698,0.653 h -0.173 l -4.052,-0.697 c -0.478,-0.086 -0.869,-0.392 -0.869,-0.87 v -3.573 h -2.836 c -0.48,0 -0.872,-0.392 -0.872,-0.871 v -1.959 c 0,-0.481 0.392,-0.785 0.872,-0.873 l 2.836,-0.609 V 44.679 c 0,-5.837 2.003,-6.925 6.922,-6.925 0.961,0 1.918,0.129 2.962,0.305 0.569,0.087 0.828,0.347 0.828,0.783 v 2.743 c 0,0.436 -0.346,0.655 -0.913,0.655 m -25.92,2.439 c 0,-5.837 2.005,-6.925 6.927,-6.925 0.959,0 1.916,0.129 2.962,0.305 0.568,0.087 0.828,0.347 0.828,0.783 v 2.743 c 0,0.436 -0.348,0.655 -0.913,0.655 h -2.31 c -1.57,0 -1.699,0.261 -1.699,2.439 v 13.678 h 2.666 c 0.482,0 0.874,0.394 0.874,0.871 v 2.57 c 0,0.479 -0.392,0.871 -0.874,0.871 h -2.666 v 4.487 c 0,0.436 -0.306,0.653 -0.696,0.653 h -0.175 l -4.053,-0.697 c -0.478,-0.086 -0.871,-0.392 -0.871,-0.87 v -3.573 h -4.092 c -0.482,0 -0.874,-0.392 -0.874,-0.871 v -1.959 c 0,-0.481 0.392,-0.785 0.874,-0.873 l 4.092,-0.609 z m -20.906,0.348 v 0.175 c 0,2.439 0.871,3.703 4.834,3.703 h 2.745 v -5.358 c -1.263,-0.698 -2.875,-1.219 -4.444,-1.219 -2.177,0 -3.135,0.565 -3.135,2.699 m 7.883,-5.357 v -0.696 c 0,-0.48 0.392,-0.872 0.872,-0.872 h 3.702 c 0.48,0 0.871,0.392 0.871,0.872 v 15.68 c 0,5.577 -3.398,8.32 -9.582,8.32 -3.007,0 -5.533,-0.348 -7.276,-0.697 -0.565,-0.13 -0.825,-0.435 -0.825,-0.914 v -2.787 c 0,-0.611 0.346,-0.741 0.782,-0.741 h 0.219 c 1.439,0.174 4.312,0.349 7.1,0.349 2.57,0 3.833,-0.698 3.833,-3.53 v -1.916 h -2.745 c -7.58,0 -10.628,-2.57 -10.628,-7.536 v -0.175 c 0,-5.881 3.919,-7.273 7.536,-7.273 2.091,0 4.136,0.696 6.141,1.916 m -23.215,-1.568 h 4.05 c 0.479,0 0.827,0.436 0.827,0.916 v 31.363 c 0,0.477 -0.348,0.871 -0.827,0.871 h -4.05 c -0.48,0 -0.872,-0.394 -0.872,-0.871 V 39.018 c 0,-0.48 0.392,-0.916 0.872,-0.916 m -11.151,22.26 c 0,-3.486 -1.83,-5.229 -6.536,-5.229 -0.739,0 -3.181,0.087 -3.874,0.131 v 10.368 c 0.783,0.088 2.96,0.175 3.874,0.175 4.355,0 6.536,-1.396 6.536,-5.054 z m 6.01,0 v 0.391 c 0,7.71 -5.837,10.064 -12.546,10.064 -3.181,0 -6.272,-0.219 -8.536,-0.569 -0.871,-0.13 -1.397,-0.435 -1.397,-1.306 V 38.974 c 0,-0.48 0.395,-0.872 0.872,-0.872 h 4.357 c 0.479,0 0.83,0.392 0.83,0.872 v 11.369 c 0.999,-0.044 2.74,-0.175 3.874,-0.175 6.709,0 12.546,2.483 12.546,10.194 m 79.584,34.006 c 0,3.572 1.609,5.881 4.661,5.881 3.048,0 4.662,-2.309 4.662,-5.881 v -3.527 c 0,-3.573 -1.614,-5.882 -4.662,-5.882 -3.052,0 -4.661,2.309 -4.661,5.882 z m 4.661,-14.374 c 6.837,0 10.411,4.616 10.411,10.847 v 3.527 c 0,6.229 -3.574,10.846 -10.411,10.846 -6.839,0 -10.41,-4.617 -10.41,-10.846 v -3.527 c 0,-6.231 3.571,-10.847 10.41,-10.847 m -18.645,13.415 -5.705,3.485 c -1.091,0.654 -1.743,1.09 -1.743,1.787 0,1.351 0.915,1.831 3.006,1.831 2.48,0 5.969,-0.351 7.187,-0.525 h 0.173 c 0.436,0 0.698,0.305 0.698,0.829 v 2.525 c 0,0.523 -0.262,0.873 -0.785,1.002 -2.22,0.479 -4.223,0.871 -7.755,0.871 -5.531,0 -8.274,-2.177 -8.274,-6.533 0,-2.528 1.525,-4.705 3.659,-6.012 l 5.968,-3.66 c 1.393,-0.871 1.915,-1.393 1.915,-2.221 0,-1.175 -0.392,-2.091 -3.09,-2.091 -1.308,0 -5.228,0.218 -7.319,0.48 h -0.176 c -0.435,0 -0.74,-0.349 -0.74,-0.696 v -2.614 c 0,-0.524 0.305,-0.872 0.827,-1.003 2.44,-0.653 6.1,-0.87 7.799,-0.87 5.706,0 8.536,3.004 8.536,6.794 0,2.221 -0.522,4.401 -4.181,6.621 m -30.839,-0.74 5.967,-3.66 c 1.393,-0.871 1.917,-1.393 1.917,-2.221 0,-1.175 -0.392,-2.091 -3.094,-2.091 -1.307,0 -5.229,0.218 -7.317,0.48 h -0.175 c -0.433,0 -0.74,-0.349 -0.74,-0.696 v -2.614 c 0,-0.524 0.307,-0.872 0.828,-1.003 2.438,-0.653 6.097,-0.87 7.796,-0.87 5.708,0 8.539,3.004 8.539,6.794 0,2.221 -0.521,4.401 -4.182,6.621 l -5.706,3.485 c -1.09,0.654 -1.743,1.09 -1.743,1.787 0,1.351 0.915,1.831 3.006,1.831 2.483,0 5.966,-0.351 7.186,-0.525 h 0.174 c 0.437,0 0.697,0.305 0.697,0.829 v 2.525 c 0,0.523 -0.26,0.873 -0.784,1.002 -2.22,0.479 -4.225,0.871 -7.752,0.871 -5.532,0 -8.276,-2.177 -8.276,-6.533 0,-2.528 1.521,-4.705 3.659,-6.012 m -21.78,-5.226 c 0,2.439 0.871,3.702 4.836,3.702 h 2.743 v -5.357 c -1.263,-0.699 -2.875,-1.22 -4.442,-1.22 -2.178,0 -3.137,0.565 -3.137,2.7 z m 1.742,-7.449 c 2.091,0 4.138,0.697 6.142,1.915 v -0.696 c 0,-0.478 0.392,-0.87 0.871,-0.87 h 3.701 c 0.481,0 0.873,0.392 0.873,0.87 v 15.681 c 0,5.577 -3.399,8.32 -9.583,8.32 -3.006,0 -5.534,-0.348 -7.273,-0.697 -0.568,-0.13 -0.828,-0.435 -0.828,-0.914 v -2.787 c 0,-0.611 0.346,-0.741 0.781,-0.741 h 0.219 c 1.437,0.174 4.314,0.349 7.101,0.349 2.57,0 3.833,-0.699 3.833,-3.53 v -1.915 h -2.743 c -7.582,0 -10.63,-2.57 -10.63,-7.536 v -0.175 c 0,-5.881 3.922,-7.274 7.536,-7.274 m -36.33,0.349 h 4.315 c 0.477,0 0.872,0.392 0.872,0.87 v 13.329 h 12.367 V 81.213 c 0,-0.478 0.395,-0.87 0.871,-0.87 h 4.316 c 0.477,0 0.872,0.392 0.872,0.87 v 30.666 c 0,0.479 -0.395,0.827 -0.872,0.827 h -4.316 c -0.476,0 -0.871,-0.348 -0.871,-0.827 V 99.857 h -12.367 v 12.022 c 0,0.479 -0.395,0.827 -0.872,0.827 h -4.315 c -0.477,0 -0.872,-0.348 -0.872,-0.827 V 81.213 c 0,-0.478 0.395,-0.87 0.872,-0.87" />
          </g>
          <path
             inkscape:connector-curvature="0"
             id="path879"
             style="fill:#b00333;fill-opacity:1;fill-rule:nonzero;stroke:none"
             d="M 296.951,241.511 H 165.993 v 130.961 h 130.958 z" />
          <path
             inkscape:connector-curvature="0"
             id="path881"
             style="fill:#f7a600;fill-opacity:1;fill-rule:nonzero;stroke:none"
             d="M 315.663,278.93 H 203.412 v 112.252 h 112.251 z" />
          <path
             inkscape:connector-curvature="0"
             id="path883"
             style="fill:#de6102;fill-opacity:1;fill-rule:nonzero;stroke:none"
             d="m 203.412,278.93 h 93.539 v 93.542 h -93.539 z" />
          <g
             transform="translate(281.6445,357.9399)"
             id="g885">
            <path
               inkscape:connector-curvature="0"
               id="path887"
               style="fill:#ffffff;fill-opacity:1;fill-rule:nonzero;stroke:none"
               d="m 0,0 h -4.313 c -0.481,0 -0.873,-0.348 -0.873,-0.828 v -30.664 c 0,-0.481 0.392,-0.871 0.873,-0.871 H 0 c 0.477,0 0.87,0.39 0.87,0.871 V -0.828 C 0.87,-0.348 0.477,0 0,0 m -16.241,-10.105 c 0,-3.484 -1.829,-5.228 -6.533,-5.228 -0.741,0 -3.18,0.087 -3.877,0.131 v 10.367 c 0.785,0.087 2.963,0.175 3.877,0.175 4.356,0 6.533,-1.393 6.533,-5.052 z m -6.533,10.453 c -3.18,0 -6.272,-0.216 -8.538,-0.565 -0.872,-0.131 -1.394,-0.435 -1.394,-1.307 v -29.968 c 0,-0.481 0.392,-0.871 0.872,-0.871 h 4.356 c 0.479,0 0.827,0.39 0.827,0.871 v 11.367 c 1.001,-0.041 2.744,-0.173 3.877,-0.173 6.708,0 12.545,2.482 12.545,10.193 v 0.393 c 0,7.709 -5.837,10.06 -12.545,10.06 M -40.185,0 h -4.311 c -0.481,0 -0.873,-0.348 -0.873,-0.828 v -12.021 h -12.37 v 12.021 c 0,0.48 -0.392,0.828 -0.871,0.828 h -4.312 c -0.481,0 -0.872,-0.348 -0.872,-0.828 v -30.664 c 0,-0.481 0.391,-0.871 0.872,-0.871 h 4.312 c 0.479,0 0.871,0.39 0.871,0.871 v 13.329 h 12.37 v -13.329 c 0,-0.481 0.392,-0.871 0.873,-0.871 h 4.311 c 0.48,0 0.871,0.39 0.871,0.871 v 30.664 c 0,0.48 -0.391,0.828 -0.871,0.828" />
          </g>
          <g
             transform="translate(174.8753,217.5172)"
             id="g889">
            <path
               inkscape:connector-curvature="0"
               id="path891"
               style="fill:#595f62;fill-opacity:1;fill-rule:nonzero;stroke:none"
               d="M 0,0 V 2.416 C 0,6.279 -2.108,7.977 -5.419,7.977 -6.778,7.977 -8.155,7.886 -8.672,7.799 -8.905,7.762 -9.049,7.602 -9.049,7.352 v -12.29 c 0,-0.265 0.144,-0.409 0.377,-0.446 0.517,-0.087 1.894,-0.177 3.253,-0.177 C -2.108,-5.561 0,-3.829 0,0 m -1.625,0 c 0,-3.221 -1.646,-4.17 -3.794,-4.17 -0.84,0 -1.413,0 -1.986,0.037 V 6.53 c 0.591,0.036 1.146,0.054 1.986,0.054 2.148,0 3.794,-0.93 3.794,-4.168 z m 5.671,6.331 v 1.431 c 0,0.196 -0.161,0.359 -0.358,0.359 H 2.777 C 2.581,8.121 2.421,7.958 2.421,7.762 V 6.331 c 0,-0.193 0.16,-0.355 0.356,-0.355 h 0.911 c 0.197,0 0.358,0.162 0.358,0.355 M 4.01,-5.077 v 9.119 c 0,0.195 -0.161,0.359 -0.357,0.359 H 2.796 C 2.599,4.401 2.438,4.237 2.438,4.042 v -9.119 c 0,-0.199 0.161,-0.359 0.358,-0.359 h 0.857 c 0.196,0 0.357,0.16 0.357,0.359 m 10.649,8.619 v 0.464 c 0,0.214 -0.197,0.395 -0.411,0.395 H 10.332 C 7.255,4.401 6.363,2.827 6.363,1.234 V 1.093 c 0,-0.916 0.267,-1.558 0.82,-2.079 -0.5,-0.283 -0.732,-0.801 -0.732,-1.283 v -0.019 c 0,-0.557 0.251,-1.144 0.822,-1.396 L 7.399,-3.737 C 6.809,-4.184 6.273,-5.007 6.273,-6.01 v -0.16 c 0,-1.753 1.285,-2.844 4.113,-2.844 2.933,0 4.076,1.054 4.076,2.772 v 0.141 c 0,1.684 -1.679,2.185 -3.432,2.633 L 8.363,-2.79 c -0.411,0.108 -0.554,0.268 -0.554,0.575 0,0.268 0.143,0.463 0.448,0.606 0.518,-0.214 1.127,-0.356 2.075,-0.356 2.755,0 3.969,1.087 3.969,3.058 v 0.141 c 0,0.968 -0.285,1.504 -0.607,1.844 l 0.643,0.123 c 0.198,0.037 0.322,0.108 0.322,0.341 M 12.748,1.093 c 0,-1.076 -0.484,-1.826 -2.416,-1.826 -2.058,0 -2.416,1.037 -2.416,1.826 v 0.141 c 0,1.003 0.412,1.916 2.416,1.916 1.932,0 2.416,-0.84 2.416,-1.916 z m 0.143,-7.335 c 0,-0.985 -0.466,-1.558 -2.505,-1.558 -1.986,0 -2.577,0.627 -2.577,1.63 v 0.16 c 0,0.931 0.358,1.379 0.877,1.826 l 2.022,-0.519 c 1.61,-0.412 2.183,-0.698 2.183,-1.398 z m 5.38,12.573 v 1.431 c 0,0.196 -0.162,0.359 -0.358,0.359 h -0.911 c -0.197,0 -0.356,-0.163 -0.356,-0.359 V 6.331 c 0,-0.193 0.159,-0.355 0.356,-0.355 h 0.911 c 0.196,0 0.358,0.162 0.358,0.355 M 18.234,-5.077 v 9.119 c 0,0.195 -0.161,0.359 -0.357,0.359 H 17.02 c -0.196,0 -0.358,-0.164 -0.358,-0.359 v -9.119 c 0,-0.199 0.162,-0.359 0.358,-0.359 h 0.857 c 0.196,0 0.357,0.16 0.357,0.359 m 7.886,-0.091 v 0.625 c 0,0.178 -0.125,0.25 -0.376,0.25 h -1 c -0.716,0 -0.967,0.144 -0.967,1.126 v 6.245 h 1.931 c 0.197,0 0.358,0.16 0.358,0.358 v 0.606 c 0,0.195 -0.161,0.359 -0.358,0.359 h -1.931 v 1.948 c 0,0.178 -0.125,0.305 -0.268,0.305 H 23.455 L 22.527,6.509 C 22.331,6.473 22.205,6.331 22.205,6.154 V 4.401 H 20.471 C 20.274,4.401 20.13,4.274 20.13,4.077 V 3.596 c 0,-0.196 0.144,-0.304 0.341,-0.322 l 1.734,-0.196 v -6.245 c 0,-1.964 0.787,-2.394 2.43,-2.394 0.341,0 0.805,0.035 1.163,0.09 0.233,0.035 0.322,0.141 0.322,0.303 m 8.683,0.089 v 6.241 c 0,2.114 -0.999,3.362 -3.486,3.362 C 30.1,4.524 29.278,4.415 28.545,4.291 28.294,4.256 28.169,4.15 28.169,3.955 V 3.328 c 0,-0.233 0.161,-0.287 0.322,-0.287 h 0.09 c 0.714,0.073 1.573,0.145 2.736,0.145 1.397,0 1.916,-0.518 1.916,-2.024 V 0.445 h -1.326 c -3.184,0 -4.309,-0.961 -4.309,-2.895 v -0.214 c 0,-2.237 1.393,-2.897 2.914,-2.897 1.002,0 1.897,0.376 2.756,0.876 v -0.394 c 0,-0.197 0.161,-0.357 0.357,-0.357 h 0.822 c 0.197,0 0.356,0.16 0.356,0.359 z m -1.57,1.52 c -0.86,-0.466 -1.594,-0.716 -2.417,-0.716 -1.038,0 -1.646,0.34 -1.646,1.63 v 0.214 c 0,1.271 0.573,1.753 2.737,1.753 h 1.326 z m 5.699,-1.518 V 7.672 c 0,0.195 -0.143,0.34 -0.322,0.34 h -0.928 c -0.197,0 -0.322,-0.159 -0.322,-0.34 V -5.077 c 0,-0.199 0.143,-0.359 0.322,-0.359 h 0.928 c 0.197,0 0.322,0.178 0.322,0.359 m 14.863,-0.145 v 0.911 c 0,0.127 -0.072,0.214 -0.198,0.214 h -3.451 c -1.896,0 -2.199,0.503 -2.199,1.861 v 3.007 h 5.489 c 0.199,0 0.359,0.16 0.359,0.358 v 0.678 c 0,0.195 -0.16,0.355 -0.359,0.355 H 47.947 V 4.65 c 0,1.361 0.303,1.862 2.199,1.862 h 3.451 c 0.126,0 0.198,0.089 0.198,0.213 V 7.62 c 0,0.106 -0.072,0.233 -0.179,0.247 -0.751,0.073 -2.433,0.11 -3.488,0.11 -2.504,0 -3.807,-0.947 -3.807,-3.327 v -6.886 c 0,-2.38 1.303,-3.325 3.807,-3.325 1.055,0 2.808,0.017 3.488,0.09 0.107,0.018 0.179,0.141 0.179,0.249 m 9.776,0.145 v 5.884 c 0,2.379 -0.964,3.717 -3.111,3.717 -1.056,0 -1.861,-0.268 -2.845,-0.823 v 0.341 c 0,0.195 -0.143,0.359 -0.339,0.359 h -0.894 c -0.196,0 -0.339,-0.164 -0.339,-0.359 v -9.119 c 0,-0.199 0.161,-0.359 0.339,-0.359 h 0.876 c 0.196,0 0.357,0.178 0.357,0.359 V 2.47 c 0.823,0.412 1.664,0.698 2.416,0.698 1.36,0 1.968,-0.554 1.968,-2.361 v -5.884 c 0,-0.199 0.162,-0.359 0.358,-0.359 h 0.857 c 0.196,0 0.357,0.16 0.357,0.359 m 10.602,8.619 v 0.464 c 0,0.214 -0.196,0.395 -0.41,0.395 h -3.916 c -3.077,0 -3.969,-1.574 -3.969,-3.167 V 1.093 c 0,-0.916 0.268,-1.558 0.821,-2.079 -0.501,-0.283 -0.733,-0.801 -0.733,-1.283 v -0.019 c 0,-0.557 0.251,-1.144 0.822,-1.396 l 0.124,-0.053 c -0.588,-0.447 -1.125,-1.27 -1.125,-2.273 v -0.16 c 0,-1.753 1.286,-2.844 4.114,-2.844 2.933,0 4.076,1.054 4.076,2.772 v 0.141 c 0,1.684 -1.679,2.185 -3.432,2.633 l -2.666,0.678 c -0.412,0.108 -0.555,0.268 -0.555,0.575 0,0.268 0.143,0.463 0.447,0.606 0.52,-0.214 1.127,-0.356 2.076,-0.356 2.754,0 3.969,1.087 3.969,3.058 v 0.141 c 0,0.968 -0.285,1.504 -0.608,1.844 l 0.644,0.123 c 0.196,0.037 0.321,0.108 0.321,0.341 M 72.262,1.093 c 0,-1.076 -0.483,-1.826 -2.415,-1.826 -2.058,0 -2.416,1.037 -2.416,1.826 v 0.141 c 0,1.003 0.412,1.916 2.416,1.916 1.932,0 2.415,-0.84 2.415,-1.916 z m 0.143,-7.335 c 0,-0.985 -0.465,-1.558 -2.504,-1.558 -1.987,0 -2.577,0.627 -2.577,1.63 v 0.16 c 0,0.931 0.358,1.379 0.876,1.826 l 2.023,-0.519 c 1.61,-0.412 2.182,-0.698 2.182,-1.398 z m 5.47,12.573 v 1.431 c 0,0.196 -0.161,0.359 -0.358,0.359 h -0.911 c -0.196,0 -0.357,-0.163 -0.357,-0.359 V 6.331 c 0,-0.193 0.161,-0.355 0.357,-0.355 h 0.911 c 0.197,0 0.358,0.162 0.358,0.355 M 77.838,-5.077 v 9.119 c 0,0.195 -0.16,0.359 -0.356,0.359 h -0.858 c -0.196,0 -0.357,-0.164 -0.357,-0.359 v -9.119 c 0,-0.199 0.161,-0.359 0.357,-0.359 h 0.858 c 0.196,0 0.356,0.16 0.356,0.359 m 10.191,0 v 5.884 c 0,2.379 -0.964,3.717 -3.109,3.717 -1.056,0 -1.862,-0.268 -2.847,-0.823 v 0.341 c 0,0.195 -0.141,0.359 -0.339,0.359 h -0.893 c -0.196,0 -0.339,-0.164 -0.339,-0.359 v -9.119 c 0,-0.199 0.161,-0.359 0.339,-0.359 h 0.875 c 0.197,0 0.357,0.178 0.357,0.359 V 2.47 c 0.825,0.412 1.666,0.698 2.416,0.698 1.36,0 1.968,-0.554 1.968,-2.361 v -5.884 c 0,-0.199 0.162,-0.359 0.357,-0.359 h 0.859 c 0.196,0 0.356,0.16 0.356,0.359 m 10.138,4.453 v 0.963 c 0,2.54 -1.321,4.185 -3.933,4.185 -2.558,0 -3.97,-1.624 -3.97,-4.185 v -1.608 c 0,-3.329 2.001,-4.292 4.059,-4.292 1.199,0 2.184,0.108 3.201,0.303 0.286,0.055 0.358,0.179 0.358,0.411 v 0.608 c 0,0.177 -0.144,0.25 -0.286,0.25 h -0.09 c -0.821,-0.127 -2.145,-0.195 -3.183,-0.195 -1.646,0 -2.488,0.785 -2.488,2.915 v 0.253 h 5.993 c 0.214,0 0.339,0.157 0.339,0.392 m -1.589,0.801 h -4.743 v 0.162 c 0,1.931 0.86,2.811 2.399,2.811 1.574,0 2.344,-0.789 2.344,-2.811 z m 11.47,-0.801 v 0.963 c 0,2.54 -1.323,4.185 -3.934,4.185 -2.558,0 -3.969,-1.624 -3.969,-4.185 v -1.608 c 0,-3.329 2.002,-4.292 4.059,-4.292 1.199,0 2.184,0.108 3.201,0.303 0.285,0.055 0.357,0.179 0.357,0.411 v 0.608 c 0,0.177 -0.143,0.25 -0.286,0.25 h -0.091 c -0.819,-0.127 -2.145,-0.195 -3.181,-0.195 -1.646,0 -2.488,0.785 -2.488,2.915 v 0.253 h 5.992 c 0.214,0 0.34,0.157 0.34,0.392 m -1.591,0.801 h -4.741 v 0.162 c 0,1.931 0.859,2.811 2.398,2.811 1.575,0 2.343,-0.789 2.343,-2.811 z m 8.205,3.292 v 0.733 c 0,0.213 -0.125,0.322 -0.376,0.322 -0.806,0 -1.628,-0.233 -2.522,-0.856 v 0.374 c 0,0.195 -0.143,0.359 -0.339,0.359 h -0.839 c -0.197,0 -0.339,-0.164 -0.339,-0.359 v -9.119 c 0,-0.199 0.16,-0.359 0.339,-0.359 h 0.875 c 0.195,0 0.356,0.178 0.356,0.359 v 7.493 c 0.895,0.538 1.646,0.752 2.469,0.752 0.251,0 0.376,0.108 0.376,0.301 m 3.611,2.862 v 1.431 c 0,0.196 -0.16,0.359 -0.357,0.359 h -0.912 c -0.196,0 -0.357,-0.163 -0.357,-0.359 V 6.331 c 0,-0.193 0.161,-0.355 0.357,-0.355 h 0.912 c 0.197,0 0.357,0.162 0.357,0.355 m -0.036,-11.408 v 9.119 c 0,0.195 -0.16,0.359 -0.356,0.359 h -0.859 c -0.197,0 -0.355,-0.164 -0.355,-0.359 v -9.119 c 0,-0.199 0.158,-0.359 0.355,-0.359 h 0.859 c 0.196,0 0.356,0.16 0.356,0.359 m 10.191,0 v 5.884 c 0,2.379 -0.966,3.717 -3.111,3.717 -1.053,0 -1.861,-0.268 -2.844,-0.823 v 0.341 c 0,0.195 -0.144,0.359 -0.339,0.359 h -0.894 c -0.197,0 -0.34,-0.164 -0.34,-0.359 v -9.119 c 0,-0.199 0.161,-0.359 0.34,-0.359 h 0.875 c 0.196,0 0.358,0.178 0.358,0.359 V 2.47 c 0.822,0.412 1.664,0.698 2.415,0.698 1.361,0 1.968,-0.554 1.968,-2.361 v -5.884 c 0,-0.199 0.161,-0.359 0.358,-0.359 h 0.856 c 0.197,0 0.358,0.16 0.358,0.359 m 10.604,8.619 v 0.464 c 0,0.214 -0.196,0.395 -0.41,0.395 h -3.917 c -3.078,0 -3.971,-1.574 -3.971,-3.167 V 1.093 c 0,-0.916 0.268,-1.558 0.821,-2.079 -0.5,-0.283 -0.734,-0.801 -0.734,-1.283 v -0.019 c 0,-0.557 0.254,-1.144 0.823,-1.396 l 0.125,-0.053 c -0.589,-0.447 -1.125,-1.27 -1.125,-2.273 v -0.16 c 0,-1.753 1.286,-2.844 4.114,-2.844 2.934,0 4.078,1.054 4.078,2.772 v 0.141 c 0,1.684 -1.681,2.185 -3.434,2.633 l -2.667,0.678 c -0.412,0.108 -0.554,0.268 -0.554,0.575 0,0.268 0.142,0.463 0.449,0.606 0.517,-0.214 1.126,-0.356 2.075,-0.356 2.755,0 3.969,1.087 3.969,3.058 v 0.141 c 0,0.968 -0.286,1.504 -0.606,1.844 l 0.642,0.123 c 0.195,0.037 0.322,0.108 0.322,0.341 m -1.913,-2.449 c 0,-1.076 -0.482,-1.826 -2.414,-1.826 -2.059,0 -2.416,1.037 -2.416,1.826 v 0.141 c 0,1.003 0.411,1.916 2.416,1.916 1.932,0 2.414,-0.84 2.414,-1.916 z m 0.144,-7.335 c 0,-0.985 -0.463,-1.558 -2.505,-1.558 -1.987,0 -2.577,0.627 -2.577,1.63 v 0.16 c 0,0.931 0.358,1.379 0.876,1.826 l 2.023,-0.519 c 1.611,-0.412 2.183,-0.698 2.183,-1.398 z m 10.919,5.571 c 0,-0.327 -0.268,-0.595 -0.593,-0.595 h -1.509 c -0.327,0 -0.592,0.268 -0.592,0.595 v 2.387 c 0,0.327 0.265,0.594 0.592,0.594 h 1.509 c 0.325,0 0.593,-0.267 0.593,-0.594 v -2.387 m 16.144,0.062 v 8.121 c 0,0.195 -0.16,0.338 -0.341,0.338 h -0.96 c -0.195,0 -0.336,-0.16 -0.336,-0.338 v -8.121 c 0,-2.325 -0.713,-3.558 -2.919,-3.558 -2.207,0 -2.921,1.251 -2.921,3.558 v 8.121 c 0,0.195 -0.16,0.338 -0.335,0.338 h -0.963 c -0.195,0 -0.337,-0.16 -0.337,-0.338 v -8.121 c 0,-3.416 1.671,-4.952 4.556,-4.952 2.882,0 4.556,1.536 4.556,4.952 m 10.038,-4.47 v 5.886 c 0,2.379 -0.958,3.717 -3.094,3.717 -1.051,0 -1.853,-0.268 -2.833,-0.82 v 0.338 c 0,0.195 -0.141,0.359 -0.338,0.359 h -0.887 c -0.195,0 -0.338,-0.164 -0.338,-0.359 v -9.121 c 0,-0.197 0.16,-0.357 0.338,-0.357 h 0.872 c 0.196,0 0.353,0.178 0.353,0.357 V 2.47 c 0.82,0.412 1.658,0.698 2.405,0.698 1.355,0 1.961,-0.554 1.961,-2.361 v -5.886 c 0,-0.197 0.159,-0.357 0.352,-0.357 h 0.854 c 0.195,0 0.355,0.16 0.355,0.357 m 4.133,11.412 v 1.429 c 0,0.196 -0.16,0.356 -0.355,0.356 h -0.908 c -0.193,0 -0.354,-0.16 -0.354,-0.356 V 6.333 c 0,-0.198 0.161,-0.357 0.354,-0.357 h 0.908 c 0.195,0 0.355,0.159 0.355,0.357 m -0.036,-11.412 v 9.121 c 0,0.195 -0.159,0.359 -0.356,0.359 h -0.85 c -0.199,0 -0.359,-0.164 -0.359,-0.359 v -9.121 c 0,-0.197 0.16,-0.357 0.359,-0.357 h 0.85 c 0.197,0 0.356,0.16 0.356,0.357 m 10.055,9.175 c 0,0.178 -0.106,0.305 -0.287,0.305 h -0.976 c -0.143,0 -0.268,-0.11 -0.338,-0.341 l -2.048,-7.798 c -0.108,-0.429 -0.213,-0.519 -0.373,-0.519 -0.178,0 -0.265,0.09 -0.374,0.519 L 182.073,4.06 C 182,4.291 181.878,4.401 181.735,4.401 h -0.979 c -0.179,0 -0.284,-0.127 -0.284,-0.305 0,-0.036 0,-0.073 0.018,-0.127 l 2.403,-8.512 c 0.229,-0.804 0.835,-1.018 1.601,-1.018 0.765,0 1.369,0.214 1.601,1.018 l 2.402,8.512 c 0.019,0.054 0.019,0.091 0.019,0.127 m 9.268,-4.72 v 0.963 c 0,2.543 -1.318,4.185 -3.916,4.185 -2.544,0 -3.95,-1.627 -3.95,-4.185 v -1.608 c 0,-3.329 1.993,-4.292 4.04,-4.292 1.194,0 2.172,0.108 3.184,0.303 0.284,0.055 0.356,0.179 0.356,0.411 v 0.608 c 0,0.177 -0.142,0.25 -0.283,0.25 h -0.091 c -0.817,-0.127 -2.135,-0.195 -3.166,-0.195 -1.639,0 -2.475,0.785 -2.475,2.915 v 0.25 h 5.961 c 0.214,0 0.34,0.162 0.34,0.395 m -1.583,0.801 h -4.718 v 0.162 c 0,1.934 0.853,2.811 2.385,2.811 1.567,0 2.333,-0.786 2.333,-2.811 z m 8.074,3.295 v 0.73 c 0,0.216 -0.125,0.322 -0.373,0.322 -0.801,0 -1.621,-0.233 -2.511,-0.856 v 0.374 c 0,0.195 -0.142,0.359 -0.338,0.359 h -0.835 c -0.196,0 -0.338,-0.164 -0.338,-0.359 v -9.121 c 0,-0.197 0.162,-0.357 0.338,-0.357 h 0.871 c 0.197,0 0.356,0.178 0.356,0.357 v 7.495 c 0.89,0.536 1.637,0.752 2.457,0.752 0.248,0 0.373,0.106 0.373,0.304 m 8.088,-6.441 c 0,1.055 -0.479,1.823 -1.956,2.7 l -1.764,1.057 c -0.817,0.482 -1.227,0.822 -1.227,1.358 0,0.914 0.66,1.04 1.655,1.04 0.998,0 2.137,-0.091 2.759,-0.145 h 0.054 c 0.178,0 0.302,0.091 0.302,0.305 v 0.588 c 0,0.198 -0.108,0.322 -0.338,0.357 -0.835,0.143 -1.779,0.233 -2.777,0.233 -1.832,0 -3.22,-0.515 -3.22,-2.378 0,-1.126 0.729,-1.896 1.813,-2.557 l 1.799,-1.073 c 1.016,-0.607 1.336,-0.95 1.336,-1.485 0,-0.966 -0.606,-1.27 -1.764,-1.27 -0.641,0 -1.939,0.088 -2.792,0.196 h -0.072 c -0.178,0 -0.32,-0.108 -0.32,-0.268 v -0.624 c 0,-0.198 0.142,-0.304 0.374,-0.358 0.871,-0.214 2.153,-0.268 2.81,-0.268 1.996,0 3.328,0.768 3.328,2.592 m 3.708,9.302 v 1.429 c 0,0.196 -0.16,0.356 -0.354,0.356 h -0.907 c -0.196,0 -0.356,-0.16 -0.356,-0.356 V 6.333 c 0,-0.198 0.16,-0.357 0.356,-0.357 h 0.907 c 0.194,0 0.354,0.159 0.354,0.357 m -0.036,-11.412 v 9.121 c 0,0.195 -0.161,0.359 -0.354,0.359 h -0.855 c -0.194,0 -0.354,-0.164 -0.354,-0.359 v -9.121 c 0,-0.197 0.16,-0.357 0.354,-0.357 h 0.855 c 0.193,0 0.354,0.16 0.354,0.357 m 7.848,-0.089 v 0.625 c 0,0.178 -0.124,0.25 -0.374,0.25 h -0.998 c -0.711,0 -0.96,0.142 -0.96,1.126 v 6.245 h 1.921 c 0.197,0 0.356,0.163 0.356,0.358 v 0.606 c 0,0.195 -0.159,0.359 -0.356,0.359 h -1.921 v 1.948 c 0,0.178 -0.125,0.305 -0.267,0.305 h -0.052 l -0.925,-0.145 c -0.197,-0.036 -0.32,-0.178 -0.32,-0.355 V 4.401 h -1.725 c -0.198,0 -0.34,-0.127 -0.34,-0.324 V 3.596 c 0,-0.198 0.142,-0.304 0.34,-0.322 l 1.725,-0.196 v -6.245 c 0,-1.966 0.782,-2.394 2.419,-2.394 0.337,0 0.801,0.035 1.157,0.09 0.23,0.035 0.32,0.141 0.32,0.303 m 8.639,0.089 v 6.241 c 0,2.112 -0.995,3.362 -3.468,3.362 -1.211,0 -2.031,-0.106 -2.758,-0.233 -0.25,-0.035 -0.374,-0.141 -0.374,-0.336 V 3.328 c 0,-0.233 0.16,-0.287 0.319,-0.287 h 0.09 c 0.709,0.073 1.566,0.145 2.723,0.145 1.388,0 1.905,-0.521 1.905,-2.024 V 0.445 h -1.317 c -3.171,0 -4.29,-0.964 -4.29,-2.895 v -0.214 c 0,-2.235 1.387,-2.897 2.9,-2.897 0.998,0 1.887,0.373 2.741,0.874 v -0.392 c 0,-0.197 0.16,-0.357 0.356,-0.357 h 0.817 c 0.196,0 0.356,0.16 0.356,0.357 m -1.563,1.52 c -0.855,-0.466 -1.585,-0.716 -2.405,-0.716 -1.031,0 -1.637,0.34 -1.637,1.63 v 0.214 c 0,1.271 0.569,1.753 2.725,1.753 h 1.317 z m 0.441,9.927 v 1.448 c 0,0.178 -0.176,0.356 -0.355,0.356 h -0.692 c -0.178,0 -0.355,-0.178 -0.355,-0.356 V 6.368 c 0,-0.197 0.177,-0.338 0.355,-0.338 h 0.692 c 0.179,0 0.355,0.141 0.355,0.338 m -3.114,0 v 1.448 c 0,0.178 -0.178,0.356 -0.354,0.356 h -0.693 c -0.178,0 -0.356,-0.178 -0.356,-0.356 V 6.368 c 0,-0.197 0.178,-0.338 0.356,-0.338 h 0.693 c 0.176,0 0.354,0.141 0.354,0.338 m 11.772,-11.536 v 0.625 c 0,0.178 -0.124,0.25 -0.374,0.25 h -0.998 c -0.711,0 -0.959,0.142 -0.959,1.126 v 6.245 h 1.92 c 0.197,0 0.357,0.163 0.357,0.358 v 0.606 c 0,0.195 -0.16,0.359 -0.357,0.359 h -1.92 v 1.948 c 0,0.178 -0.127,0.305 -0.268,0.305 h -0.052 L 236.482,6.509 C 236.285,6.473 236.163,6.331 236.163,6.154 V 4.401 h -1.728 c -0.196,0 -0.338,-0.127 -0.338,-0.324 V 3.596 c 0,-0.198 0.142,-0.304 0.338,-0.322 l 1.728,-0.196 v -6.245 c 0,-1.966 0.782,-2.394 2.418,-2.394 0.338,0 0.801,0.035 1.155,0.09 0.233,0.035 0.322,0.141 0.322,0.303 m 14.769,9.032 v 0.232 c 0,2.88 -2.096,3.881 -4.98,3.881 -1.034,0 -2.191,-0.056 -2.954,-0.143 -0.267,-0.035 -0.426,-0.195 -0.426,-0.446 V -5.079 c 0,-0.197 0.142,-0.357 0.319,-0.357 h 0.96 c 0.195,0 0.319,0.178 0.319,0.357 v 5.026 c 0.465,-0.035 1.212,-0.09 1.782,-0.09 2.884,0 4.98,1.019 4.98,4.007 m -1.615,0 c 0,-1.862 -0.927,-2.648 -3.365,-2.648 -0.465,0 -1.371,0.054 -1.782,0.07 V 6.53 c 0.428,0.036 1.23,0.071 1.782,0.071 2.297,0 3.365,-0.698 3.365,-2.505 z m 11.193,-5.061 v 1.359 c 0,2.63 -1.35,4.362 -3.968,4.362 -2.616,0 -3.949,-1.732 -3.949,-4.362 v -1.359 c 0,-2.632 1.333,-4.364 3.949,-4.364 2.618,0 3.968,1.732 3.968,4.364 m -1.564,0 c 0,-1.846 -0.748,-2.987 -2.404,-2.987 -1.675,0 -2.386,1.161 -2.386,2.987 v 1.359 c 0,1.843 0.731,2.988 2.386,2.988 1.674,0 2.404,-1.163 2.404,-2.988 z m 8.735,-3.971 v 0.625 c 0,0.178 -0.127,0.25 -0.374,0.25 h -0.998 c -0.711,0 -0.96,0.142 -0.96,1.126 v 6.245 h 1.921 c 0.197,0 0.356,0.163 0.356,0.358 v 0.606 c 0,0.195 -0.159,0.359 -0.356,0.359 h -1.921 v 1.948 c 0,0.178 -0.126,0.305 -0.268,0.305 h -0.054 L 268,6.509 C 267.803,6.473 267.68,6.331 267.68,6.154 V 4.401 h -1.728 c -0.195,0 -0.338,-0.127 -0.338,-0.324 V 3.596 c 0,-0.198 0.143,-0.304 0.338,-0.322 l 1.728,-0.196 v -6.245 c 0,-1.966 0.78,-2.394 2.418,-2.394 0.337,0 0.799,0.035 1.155,0.09 0.231,0.035 0.323,0.141 0.323,0.303 m 8.141,2.199 c 0,1.055 -0.483,1.823 -1.957,2.7 l -1.761,1.057 c -0.82,0.482 -1.229,0.822 -1.229,1.358 0,0.914 0.657,1.04 1.655,1.04 0.997,0 2.137,-0.091 2.758,-0.145 h 0.051 c 0.181,0 0.305,0.091 0.305,0.305 v 0.588 c 0,0.198 -0.108,0.322 -0.338,0.357 -0.835,0.143 -1.779,0.233 -2.776,0.233 -1.833,0 -3.221,-0.515 -3.221,-2.378 0,-1.126 0.73,-1.896 1.815,-2.557 l 1.797,-1.073 c 1.016,-0.607 1.336,-0.95 1.336,-1.485 0,-0.966 -0.606,-1.27 -1.764,-1.27 -0.639,0 -1.94,0.088 -2.792,0.196 h -0.072 c -0.177,0 -0.32,-0.108 -0.32,-0.268 v -0.624 c 0,-0.198 0.143,-0.304 0.374,-0.358 0.87,-0.214 2.153,-0.268 2.81,-0.268 1.996,0 3.329,0.768 3.329,2.592 m 9.333,-1.878 V 7.672 c 0,0.198 -0.144,0.34 -0.322,0.34 h -0.906 c -0.195,0 -0.338,-0.162 -0.338,-0.34 V 4.347 c -0.693,0.123 -1.531,0.177 -2.083,0.177 -2.598,0 -3.879,-1.572 -3.879,-4.38 v -1.29 c 0,-2.683 1.227,-4.415 3.879,-4.415 1.087,0 2.172,0.09 3.275,0.303 0.32,0.055 0.374,0.179 0.374,0.411 m -1.566,0.768 c -0.604,-0.051 -1.477,-0.105 -2.083,-0.105 -1.763,0 -2.315,1.09 -2.315,3.038 v 1.29 c 0,1.913 0.57,3.006 2.315,3.006 0.57,0 1.496,-0.018 2.083,-0.126 z m 10.736,-1 v 6.241 c 0,2.112 -0.996,3.362 -3.468,3.362 -1.212,0 -2.031,-0.106 -2.76,-0.233 C 291.744,4.256 291.62,4.15 291.62,3.955 V 3.328 c 0,-0.233 0.159,-0.287 0.319,-0.287 h 0.089 c 0.711,0.073 1.566,0.145 2.724,0.145 1.387,0 1.906,-0.521 1.906,-2.024 V 0.445 h -1.32 c -3.166,0 -4.287,-0.964 -4.287,-2.895 v -0.214 c 0,-2.235 1.386,-2.897 2.9,-2.897 0.998,0 1.887,0.373 2.74,0.874 v -0.392 c 0,-0.197 0.163,-0.357 0.357,-0.357 h 0.817 c 0.195,0 0.355,0.16 0.355,0.357 m -1.562,1.52 c -0.856,-0.466 -1.585,-0.716 -2.406,-0.716 -1.031,0 -1.637,0.34 -1.637,1.63 v 0.214 c 0,1.271 0.57,1.753 2.723,1.753 h 1.32 z m 15.797,-1.52 v 6.332 c 0,2.488 -1.279,3.289 -2.883,3.289 -0.926,0 -1.975,-0.268 -2.954,-0.732 -0.444,0.518 -1.014,0.732 -1.78,0.732 -0.979,0 -1.887,-0.392 -2.599,-0.838 v 0.338 c 0,0.195 -0.141,0.359 -0.338,0.359 h -0.888 c -0.197,0 -0.338,-0.164 -0.338,-0.359 v -9.121 c 0,-0.197 0.125,-0.357 0.304,-0.357 h 0.941 c 0.194,0 0.319,0.178 0.319,0.357 V 2.47 c 0.749,0.376 1.531,0.698 2.172,0.698 0.928,0 1.371,-0.322 1.371,-1.88 v -6.367 c 0,-0.197 0.124,-0.357 0.304,-0.357 h 0.941 c 0.196,0 0.319,0.178 0.319,0.357 v 6.367 c 0,0.536 -0.051,1.004 -0.159,1.396 0.694,0.268 1.441,0.484 2.082,0.484 0.927,0 1.623,-0.413 1.623,-1.915 v -6.332 c 0,-0.197 0.159,-0.357 0.352,-0.357 h 0.854 c 0.196,0 0.357,0.16 0.357,0.357" />
          </g>
        </g>
      </g>
    </g>
  </g>
</svg>
