<?xml version="1.0" encoding="utf-8"?>
<!-- Generator: Adobe Illustrator 25.1.0, SVG Export Plug-In . SVG Version: 6.00 Build 0)  -->
<svg version="1.1" id="Layer_1" xmlns="http://www.w3.org/2000/svg" xmlns:xlink="http://www.w3.org/1999/xlink" x="0px" y="0px"
	 viewBox="0 0 67.68 63.56" style="enable-background:new 0 0 67.68 63.56;" xml:space="preserve">
<style type="text/css">
	.st0{fill:#005DA9;}
	.st1{fill:#0092D0;}
	.st2{clip-path:url(#SVGID_2_);}
</style>
<polygon class="st0" points="13.25,44.56 0,31.78 13.24,19 20.48,19 7.24,31.78 20.49,44.56 "/>
<polygon class="st1" points="45.4,19 32.94,6.98 23.53,16.07 16.29,16.07 32.94,0 52.65,19 "/>
<polygon class="st1" points="32.94,63.56 16.29,47.49 23.53,47.49 32.94,56.57 45.4,44.56 52.64,44.56 32.94,63.56 "/>
<g>
	<defs>
		<rect id="SVGID_1_" x="0" width="67.68" height="63.56"/>
	</defs>
	<clipPath id="SVGID_2_">
		<use xlink:href="#SVGID_1_"  style="overflow:visible;"/>
	</clipPath>
	<g class="st2">
		<path class="st0" d="M30.86,22.76l-3.1,15.76h-2.01l3.1-15.76H30.86z"/>
		<path class="st0" d="M42.7,38c-0.92,0.4-2.4,0.75-4.24,0.75c-4.12,0-6.61-2.5-6.61-6.52c0-2.97,1.24-5.8,3.49-7.6
			c1.67-1.38,3.76-2.13,6.15-2.13c1.82,0,3.1,0.44,3.54,0.77l-0.65,1.57c-0.61-0.35-1.77-0.66-3.22-0.66c-1.7,0-3.42,0.63-4.68,1.78
			c-1.53,1.38-2.5,3.6-2.5,5.98c0,2.83,1.33,5.14,4.97,5.14c1.24,0,2.59-0.23,3.49-0.68L42.7,38z"/>
		<path class="st0" d="M47.94,23c0.92-0.21,2.21-0.35,3.54-0.35c1.58,0,3.08,0.37,4,1.22c0.78,0.7,1.19,1.61,1.19,2.85
			c0,1.78-0.9,3.25-1.96,4.11c-1.26,1.03-3.1,1.5-4.94,1.5c-0.61,0-1.16-0.05-1.67-0.12l-1.24,6.31h-1.99L47.94,23z M48.4,30.57
			c0.58,0.12,1.04,0.16,1.62,0.16c2.76,0,4.6-1.66,4.6-3.88c0-1.87-1.38-2.62-3.25-2.62c-0.8,0-1.41,0.07-1.77,0.16L48.4,30.57z"/>
		<path class="st0" d="M57.41,36.09c0.87,0.58,2.11,1.01,3.47,1.01c1.84,0,3.54-1.05,3.54-2.97c0-1.17-0.7-2.03-2.4-2.95
			c-2.08-1.08-3.25-2.34-3.25-4.04c0-2.8,2.52-4.63,5.52-4.63c1.58,0,2.76,0.47,3.34,0.84l-0.73,1.57
			c-0.51-0.28-1.53-0.75-2.83-0.72c-2.01,0-3.22,1.29-3.22,2.57c0,1.29,0.82,2.01,2.52,2.92c2.01,1.03,3.13,2.27,3.13,4.21
			c0,2.74-2.23,4.86-5.89,4.86c-1.65,0-3.25-0.51-3.93-1.08L57.41,36.09z"/>
	</g>
</g>
</svg>
