<?xml version="1.0" encoding="utf-8"?>
<!-- Generator: Adobe Illustrator 25.1.0, SVG Export Plug-In . SVG Version: 6.00 Build 0)  -->
<!DOCTYPE svg PUBLIC "-//W3C//DTD SVG 1.1//EN" "http://www.w3.org/Graphics/SVG/1.1/DTD/svg11.dtd" [
	<!ENTITY ns_extend "http://ns.adobe.com/Extensibility/1.0/">
	<!ENTITY ns_ai "http://ns.adobe.com/AdobeIllustrator/10.0/">
	<!ENTITY ns_graphs "http://ns.adobe.com/Graphs/1.0/">
	<!ENTITY ns_vars "http://ns.adobe.com/Variables/1.0/">
	<!ENTITY ns_imrep "http://ns.adobe.com/ImageReplacement/1.0/">
	<!ENTITY ns_sfw "http://ns.adobe.com/SaveForWeb/1.0/">
	<!ENTITY ns_custom "http://ns.adobe.com/GenericCustomNamespace/1.0/">
	<!ENTITY ns_adobe_xpath "http://ns.adobe.com/XPath/1.0/">
]>
<svg version="1.1" id="Layer_1" xmlns:x="&ns_extend;" xmlns:i="&ns_ai;" xmlns:graph="&ns_graphs;"
	 xmlns="http://www.w3.org/2000/svg" xmlns:xlink="http://www.w3.org/1999/xlink" x="0px" y="0px" viewBox="0 0 200 200"
	 style="enable-background:new 0 0 200 200;" xml:space="preserve">
<style type="text/css">
	.st0{clip-path:url(#SVGID_2_);fill:url(#SVGID_3_);}
	.st1{clip-path:url(#SVGID_5_);fill:url(#SVGID_6_);}
	.st2{clip-path:url(#SVGID_8_);fill:url(#SVGID_9_);}
	.st3{clip-path:url(#SVGID_11_);fill:url(#SVGID_12_);}
	.st4{clip-path:url(#SVGID_14_);fill:url(#SVGID_15_);}
	.st5{clip-path:url(#SVGID_17_);fill:url(#SVGID_18_);}
	.st6{display:none;fill:none;stroke:#FFFFFF;stroke-width:4;stroke-linecap:square;}
</style>
<metadata>
	<sfw  xmlns="&ns_sfw;">
		<slices></slices>
		<sliceSourceBounds  bottomLeftOrigin="true" height="288.7974" width="288.7981" x="-38.5068" y="261.7088"></sliceSourceBounds>
	</sfw>
</metadata>
<g>
	<defs>
		<path id="SVGID_1_" d="M119.2526,154.9308l35.6777-35.6777L39.4113,3.7341H12.9251c-5.0761,0-9.191,4.1149-9.191,9.191v26.4872
			L119.2526,154.9308z"/>
	</defs>
	<clipPath id="SVGID_2_">
		<use xlink:href="#SVGID_1_"  style="overflow:visible;"/>
	</clipPath>
	
		<linearGradient id="SVGID_3_" gradientUnits="userSpaceOnUse" x1="621.5986" y1="-58.6014" x2="812.1949" y2="-58.6014" gradientTransform="matrix(-0.7071 -0.7071 0.7071 -0.7071 619.4797 536.6054)">
		<stop  offset="0" style="stop-color:#FFD903"/>
		<stop  offset="1" style="stop-color:#FFFBA8"/>
	</linearGradient>
	<polygon class="st0" points="22.9869,-15.5187 157.7588,119.2531 119.2526,157.7593 -15.5193,22.9875 	"/>
</g>
<g>
	<defs>
		<path id="SVGID_4_" d="M196.2659,77.9192V12.9251c0-5.0761-4.1149-9.191-9.191-9.191h-64.9942L196.2659,77.9192z"/>
	</defs>
	<clipPath id="SVGID_5_">
		<use xlink:href="#SVGID_4_"  style="overflow:visible;"/>
	</clipPath>
	
		<linearGradient id="SVGID_6_" gradientUnits="userSpaceOnUse" x1="621.5986" y1="50.3107" x2="730.5113" y2="50.3107" gradientTransform="matrix(-0.7071 -0.7071 0.7071 -0.7071 619.4797 536.6054)">
		<stop  offset="0.0037" style="stop-color:#960000"/>
		<stop  offset="1" style="stop-color:#F97A62"/>
	</linearGradient>
	<polygon class="st1" points="157.7584,-34.7722 234.7713,42.2407 196.2651,80.7469 119.2522,3.734 	"/>
</g>
<g>
	<defs>
		<polygon id="SVGID_7_" points="157.759,116.4245 193.4362,80.7467 116.4235,3.7341 45.0685,3.7341 		"/>
	</defs>
	<clipPath id="SVGID_8_">
		<use xlink:href="#SVGID_7_"  style="overflow:visible;"/>
	</clipPath>
	
		<linearGradient id="SVGID_9_" gradientUnits="userSpaceOnUse" x1="621.5986" y1="-4.1454" x2="784.9673" y2="-4.1454" gradientTransform="matrix(-0.7071 -0.7071 0.7071 -0.7071 619.4797 536.6054)">
		<stop  offset="0" style="stop-color:#FF5F11"/>
		<stop  offset="1" style="stop-color:#FFAF00"/>
	</linearGradient>
	<polygon class="st2" points="80.7459,-34.7722 196.265,80.7469 157.7588,119.2531 42.2397,3.734 	"/>
</g>
<g>
	<defs>
		<polygon id="SVGID_10_" points="116.424,157.7594 3.7341,45.0695 3.7341,116.4245 80.7463,193.4367 		"/>
	</defs>
	<clipPath id="SVGID_11_">
		<use xlink:href="#SVGID_10_"  style="overflow:visible;"/>
	</clipPath>
	
		<linearGradient id="SVGID_12_" gradientUnits="userSpaceOnUse" x1="621.5986" y1="-113.0574" x2="784.9673" y2="-113.0574" gradientTransform="matrix(-0.7071 -0.7071 0.7071 -0.7071 619.4797 536.6054)">
		<stop  offset="0" style="stop-color:#07642A"/>
		<stop  offset="1" style="stop-color:#B7DE0A"/>
	</linearGradient>
	<polygon class="st3" points="3.7335,42.2403 119.2526,157.7593 80.7464,196.2656 -34.7728,80.7465 	"/>
</g>
<g>
	<defs>
		<path id="SVGID_13_" d="M83.5743,196.2659H187.075c5.076,0,9.191-4.1149,9.191-9.191V83.5743L83.5743,196.2659z"/>
	</defs>
	<clipPath id="SVGID_14_">
		<use xlink:href="#SVGID_13_"  style="overflow:visible;"/>
	</clipPath>
	
		<linearGradient id="SVGID_15_" gradientUnits="userSpaceOnUse" x1="204.2005" y1="512.5485" x2="285.885" y2="512.5485" gradientTransform="matrix(0.7071 0.7071 -0.4243 0.4243 211.5707 -223.3405)">
		<stop  offset="0" style="stop-color:#1B1E1D"/>
		<stop  offset="1" style="stop-color:#000000"/>
	</linearGradient>
	<polygon class="st4" points="196.2654,80.7472 254.0253,138.5068 138.5064,254.0253 80.7465,196.2657 	"/>
</g>
<g>
	<defs>
		<path id="SVGID_16_" d="M3.7341,122.0817v64.9932c0,5.076,4.1149,9.191,9.191,9.191h64.9932L3.7341,122.0817z"/>
	</defs>
	<clipPath id="SVGID_17_">
		<use xlink:href="#SVGID_16_"  style="overflow:visible;"/>
	</clipPath>
	
		<linearGradient id="SVGID_18_" gradientUnits="userSpaceOnUse" x1="95.2875" y1="621.461" x2="204.2001" y2="621.461" gradientTransform="matrix(0.7071 0.7071 -0.7071 0.7071 356.5413 -368.3119)">
		<stop  offset="0" style="stop-color:#5A5E5E"/>
		<stop  offset="1" style="stop-color:#1B1E1D"/>
	</linearGradient>
	<polygon class="st5" points="3.7335,119.2527 80.7464,196.2655 42.2402,234.7717 -34.7727,157.7589 	"/>
</g>
<path class="st6" d="M119.2522,3.734l77.0129,77.0129l-38.5062,38.5062L42.2397,3.734 M3.7335,119.2527l77.0129,77.0128
	l38.5062-38.5062L3.7335,42.2403 M157.7588,119.2531l-38.5062,38.5062"/>
</svg>
