<?xml version="1.0" encoding="utf-8"?>
<!-- Generator: Adobe Illustrator 25.4.1, SVG Export Plug-In . SVG Version: 6.00 Build 0)  -->
<svg version="1.1" id="Ebene_1" xmlns="http://www.w3.org/2000/svg" xmlns:xlink="http://www.w3.org/1999/xlink" x="0px" y="0px"
	 viewBox="0 0 141.7 141.7" style="enable-background:new 0 0 141.7 141.7;" xml:space="preserve">
<style type="text/css">
	.st0{fill:#817E65;}
</style>
<g>
	<path class="st0" d="M103.6,80.4H87.2v16.4H97h6h0.5c4.5,0,8.2-3.7,8.2-8.2S108.1,80.4,103.6,80.4z"/>
	<path class="st0" d="M0,0v141.7h141.7V0H0z M30,17.7h5.5h27.3v5.5H35.4v16.4h21.8V45H35.4v21.8H30V17.7z M68.1,102.2v4.6V117
		c-0.2,0.2-0.3,0.4-0.5,0.6c-1.4,1.5-3,2.7-4.6,3.8c-0.1,0.1-0.2,0.1-0.3,0.2c-9.9,6.1-23,5-31.7-3.4c-10.3-10-10.5-26.4-0.5-36.6
		s26.4-10.5,36.6-0.5L63.3,85c-8.1-7.9-21-7.7-28.9,0.4s-7.7,21,0.4,28.9c7.8,7.5,19.9,7.7,27.9,0.6v-12.5H46.3v-5.5h21.8V102.2z
		 M79,66.8h-5.5V17.7H79v21.8h27.3V17.7h5.5v49.1h-5.5V45H79V66.8z M117.2,124h-6.5l-10.9-21.8H87.2V124h-5.5V75h5.5h16.4
		c7.5,0,13.6,6.1,13.6,13.6c0,6.8-5,12.4-11.4,13.4L117.2,124z"/>
</g>
</svg>
