<svg id="Layer_1" data-name="Layer 1" xmlns="http://www.w3.org/2000/svg" xmlns:xlink="http://www.w3.org/1999/xlink" viewBox="0 0 192 192"><defs><style>.cls-1{fill:none;}.cls-2{clip-path:url(#clip-path);}.cls-3{clip-path:url(#clip-path-2);}.cls-4{fill:url(#linear-gradient);}.cls-5{clip-path:url(#clip-path-3);}.cls-6{fill:url(#linear-gradient-2);}.cls-7{clip-path:url(#clip-path-4);}.cls-8{fill:url(#linear-gradient-3);}.cls-9{clip-path:url(#clip-path-5);}.cls-10{fill:url(#linear-gradient-4);}.cls-11{clip-path:url(#clip-path-6);}.cls-12{fill:url(#linear-gradient-5);}.cls-13{clip-path:url(#clip-path-7);}.cls-14{fill:url(#linear-gradient-6);}</style><clipPath id="clip-path"><rect class="cls-1" width="192" height="192" rx="16"/></clipPath><clipPath id="clip-path-2"><polygon class="cls-1" points="115.2 150.78 150.78 115.2 35.58 0 0 0 0 35.58 115.2 150.78"/></clipPath><linearGradient id="linear-gradient" x1="798.44" y1="-137.45" x2="988.51" y2="-137.45" gradientTransform="translate(-826.28 204.65)" gradientUnits="userSpaceOnUse"><stop offset="0" stop-color="#ffd903"/><stop offset="1" stop-color="#fffba8"/></linearGradient><clipPath id="clip-path-3"><polygon class="cls-1" points="192 73.98 192 0 118.02 0 192 73.98"/></clipPath><linearGradient id="linear-gradient-2" x1="798.44" y1="-28.83" x2="907.05" y2="-28.83" gradientTransform="translate(-679.95 48.03)" gradientUnits="userSpaceOnUse"><stop offset="0" stop-color="#960000"/><stop offset="1" stop-color="#f97a62"/></linearGradient><clipPath id="clip-path-4"><polygon class="cls-1" points="153.6 112.38 189.18 76.8 112.38 0 41.22 0 153.6 112.38"/></clipPath><linearGradient id="linear-gradient-3" x1="798.44" y1="-83.14" x2="961.36" y2="-83.14" gradientTransform="translate(-764.7 121.54)" gradientUnits="userSpaceOnUse"><stop offset="0" stop-color="#ff5f11"/><stop offset="1" stop-color="#ffaf00"/></linearGradient><clipPath id="clip-path-5"><polygon class="cls-1" points="112.38 153.6 0 41.22 0 112.38 76.8 189.18 112.38 153.6"/></clipPath><linearGradient id="linear-gradient-4" x1="798.44" y1="-191.75" x2="961.36" y2="-191.75" gradientTransform="translate(-841.5 306.95)" gradientUnits="userSpaceOnUse"><stop offset="0" stop-color="#07642a"/><stop offset="1" stop-color="#b7de0a"/></linearGradient><clipPath id="clip-path-6"><polygon class="cls-1" points="79.62 192 192 192 192 79.62 79.62 192"/></clipPath><linearGradient id="linear-gradient-5" x1="231.05" y1="633.29" x2="312.51" y2="633.29" gradientTransform="translate(434.98 543.17) rotate(180) scale(1 0.6)" gradientUnits="userSpaceOnUse"><stop offset="0" stop-color="#1b1e1d"/><stop offset="1"/></linearGradient><clipPath id="clip-path-7"><polygon class="cls-1" points="0 118.02 0 192 73.98 192 0 118.02"/></clipPath><linearGradient id="linear-gradient-6" x1="122.44" y1="692" x2="231.05" y2="692" gradientTransform="translate(195.94 864.8) rotate(180)" gradientUnits="userSpaceOnUse"><stop offset="0" stop-color="#5a5e5e"/><stop offset="1" stop-color="#1b1e1d"/></linearGradient></defs><g class="cls-2"><g class="cls-3"><rect class="cls-4" x="-27.84" y="40.05" width="190.07" height="54.31" transform="translate(67.2 162.23) rotate(-135)"/></g><g class="cls-5"><rect class="cls-6" x="118.49" y="-7.95" width="108.61" height="54.31" transform="translate(281.41 154.96) rotate(-135)"/></g><g class="cls-7"><rect class="cls-8" x="33.74" y="11.25" width="162.92" height="54.31" transform="translate(169.5 147.01) rotate(-135)"/></g><g class="cls-9"><rect class="cls-10" x="-43.06" y="88.05" width="162.92" height="54.31" transform="translate(-15.91 223.81) rotate(-135)"/></g><g class="cls-11"><rect class="cls-12" x="122.47" y="81.74" width="81.46" height="162.92" transform="translate(163.2 394) rotate(-135)"/></g><g class="cls-13"><rect class="cls-14" x="-35.11" y="145.65" width="108.61" height="54.31" transform="translate(-89.41 308.56) rotate(-135)"/></g></g></svg>