<?xml version="1.0" encoding="utf-8"?>
<!-- Generator: Adobe Illustrator 25.1.0, SVG Export Plug-In . SVG Version: 6.00 Build 0)  -->
<!DOCTYPE svg PUBLIC "-//W3C//DTD SVG 1.1//EN" "http://www.w3.org/Graphics/SVG/1.1/DTD/svg11.dtd" [
	<!ENTITY ns_extend "http://ns.adobe.com/Extensibility/1.0/">
	<!ENTITY ns_ai "http://ns.adobe.com/AdobeIllustrator/10.0/">
	<!ENTITY ns_graphs "http://ns.adobe.com/Graphs/1.0/">
	<!ENTITY ns_vars "http://ns.adobe.com/Variables/1.0/">
	<!ENTITY ns_imrep "http://ns.adobe.com/ImageReplacement/1.0/">
	<!ENTITY ns_sfw "http://ns.adobe.com/SaveForWeb/1.0/">
	<!ENTITY ns_custom "http://ns.adobe.com/GenericCustomNamespace/1.0/">
	<!ENTITY ns_adobe_xpath "http://ns.adobe.com/XPath/1.0/">
]>
<svg version="1.1" id="Layer_1" xmlns:x="&ns_extend;" xmlns:i="&ns_ai;" xmlns:graph="&ns_graphs;"
	 xmlns="http://www.w3.org/2000/svg" xmlns:xlink="http://www.w3.org/1999/xlink" x="0px" y="0px" viewBox="0 0 192 192"
	 style="enable-background:new 0 0 192 192;" xml:space="preserve">
<style type="text/css">
	.st0{display:none;fill:none;stroke:#FFFFFF;stroke-width:4;stroke-linecap:square;}
	.st1{clip-path:url(#SVGID_2_);fill:url(#SVGID_3_);}
	.st2{clip-path:url(#SVGID_2_);fill:url(#SVGID_4_);}
	.st3{clip-path:url(#SVGID_2_);fill:url(#SVGID_5_);}
	.st4{clip-path:url(#SVGID_2_);fill:url(#SVGID_6_);}
	.st5{clip-path:url(#SVGID_2_);fill:url(#SVGID_7_);}
	.st6{clip-path:url(#SVGID_2_);fill:url(#SVGID_8_);}
</style>
<metadata>
	<sfw  xmlns="&ns_sfw;">
		<slices></slices>
		<sliceSourceBounds  bottomLeftOrigin="true" height="287.9997" width="464.6948" x="-2.829" y="262.1343"></sliceSourceBounds>
		<optimizationSettings>
			<targetSettings  fileFormat="PNG24Format" targetSettingsID="0">
				<PNG24Format  filtered="false" interlaced="false" matteColor="#FFFFFF" noMatteColor="false" transparency="true">
					</PNG24Format>
			</targetSettings>
		</optimizationSettings>
	</sfw>
</metadata>
<path class="st0" d="M-96.7478-0.266l77.0129,77.0129l-38.5062,38.5062L-173.7603-0.266 M-212.2665,115.2527l77.0129,77.0128
	l38.5062-38.5062L-212.2665,38.2403 M-58.2412,115.2531l-38.5062,38.5062"/>
<g>
	<defs>
		<path id="SVGID_1_" d="M176,192H16c-8.8366,0-16-7.1634-16-16V16C0,7.1634,7.1634,0,16,0h160c8.8366,0,16,7.1634,16,16v160
			C192,184.8366,184.8366,192,176,192z"/>
	</defs>
	<clipPath id="SVGID_2_">
		<use xlink:href="#SVGID_1_"  style="overflow:visible;"/>
	</clipPath>
	
		<linearGradient id="SVGID_3_" gradientUnits="userSpaceOnUse" x1="255.8424" y1="87.3052" x2="445.9122" y2="87.3052" gradientTransform="matrix(-0.7071 -0.7071 0.7071 -0.7071 253.5731 377.0419)">
		<stop  offset="0" style="stop-color:#FFD903"/>
		<stop  offset="1" style="stop-color:#FFFBA8"/>
	</linearGradient>
	<polygon class="st1" points="19.1996,-19.1996 153.5993,115.1999 115.1994,153.5998 -19.2002,19.2002 	"/>
	
		<linearGradient id="SVGID_4_" gradientUnits="userSpaceOnUse" x1="255.8424" y1="195.9164" x2="364.4542" y2="195.9164" gradientTransform="matrix(-0.7071 -0.7071 0.7071 -0.7071 253.5731 377.0419)">
		<stop  offset="0.0037" style="stop-color:#960000"/>
		<stop  offset="1" style="stop-color:#F97A62"/>
	</linearGradient>
	<polygon class="st2" points="153.5988,-38.3999 230.399,38.4002 191.9991,76.8001 115.199,0 	"/>
	
		<linearGradient id="SVGID_5_" gradientUnits="userSpaceOnUse" x1="255.8424" y1="141.6108" x2="418.7598" y2="141.6108" gradientTransform="matrix(-0.7071 -0.7071 0.7071 -0.7071 253.5731 377.0419)">
		<stop  offset="0" style="stop-color:#FF5F11"/>
		<stop  offset="1" style="stop-color:#FFAF00"/>
	</linearGradient>
	<polygon class="st3" points="76.7991,-38.3999 191.9991,76.8001 153.5993,115.1999 38.3992,0 	"/>
	
		<linearGradient id="SVGID_6_" gradientUnits="userSpaceOnUse" x1="255.8424" y1="32.9996" x2="418.7598" y2="32.9996" gradientTransform="matrix(-0.7071 -0.7071 0.7071 -0.7071 253.5731 377.0419)">
		<stop  offset="0" style="stop-color:#07642A"/>
		<stop  offset="1" style="stop-color:#B7DE0A"/>
	</linearGradient>
	<polygon class="st4" points="-0.0006,38.3998 115.1994,153.5998 76.7996,191.9996 -38.4004,76.7997 	"/>
	
		<linearGradient id="SVGID_7_" gradientUnits="userSpaceOnUse" x1="137.9564" y1="258.7045" x2="219.4153" y2="258.7045" gradientTransform="matrix(0.7071 0.7071 -0.4243 0.4243 146.6089 -72.9086)">
		<stop  offset="0" style="stop-color:#1B1E1D"/>
		<stop  offset="1" style="stop-color:#000000"/>
	</linearGradient>
	<polygon class="st5" points="191.9995,76.8004 249.5998,134.4004 134.4001,249.5998 76.7997,191.9998 	"/>
	
		<linearGradient id="SVGID_8_" gradientUnits="userSpaceOnUse" x1="29.3445" y1="467.2535" x2="137.9563" y2="467.2535" gradientTransform="matrix(0.7071 0.7071 -0.7071 0.7071 290.4479 -216.7484)">
		<stop  offset="0" style="stop-color:#5A5E5E"/>
		<stop  offset="1" style="stop-color:#1B1E1D"/>
	</linearGradient>
	<polygon class="st6" points="-0.0006,115.1995 76.7996,191.9996 38.3997,230.3995 -38.4004,153.5994 	"/>
</g>
</svg>
