<?xml version="1.0" encoding="utf-8"?>
<!-- Generator: Adobe Illustrator 25.1.0, SVG Export Plug-In . SVG Version: 6.00 Build 0)  -->
<!DOCTYPE svg PUBLIC "-//W3C//DTD SVG 1.1//EN" "http://www.w3.org/Graphics/SVG/1.1/DTD/svg11.dtd" [
	<!ENTITY ns_extend "http://ns.adobe.com/Extensibility/1.0/">
	<!ENTITY ns_ai "http://ns.adobe.com/AdobeIllustrator/10.0/">
	<!ENTITY ns_graphs "http://ns.adobe.com/Graphs/1.0/">
	<!ENTITY ns_vars "http://ns.adobe.com/Variables/1.0/">
	<!ENTITY ns_imrep "http://ns.adobe.com/ImageReplacement/1.0/">
	<!ENTITY ns_sfw "http://ns.adobe.com/SaveForWeb/1.0/">
	<!ENTITY ns_custom "http://ns.adobe.com/GenericCustomNamespace/1.0/">
	<!ENTITY ns_adobe_xpath "http://ns.adobe.com/XPath/1.0/">
]>
<svg version="1.1" id="Layer_1" xmlns:x="&ns_extend;" xmlns:i="&ns_ai;" xmlns:graph="&ns_graphs;"
	 xmlns="http://www.w3.org/2000/svg" xmlns:xlink="http://www.w3.org/1999/xlink" x="0px" y="0px" viewBox="0 0 192 192"
	 style="enable-background:new 0 0 192 192;" xml:space="preserve">
<style type="text/css">
	.st0{display:none;fill:none;stroke:#FFFFFF;stroke-width:4;stroke-linecap:square;}
	.st1{clip-path:url(#SVGID_2_);}
	.st2{clip-path:url(#SVGID_4_);fill:url(#SVGID_5_);}
	.st3{clip-path:url(#SVGID_7_);fill:url(#SVGID_8_);}
	.st4{clip-path:url(#SVGID_10_);fill:url(#SVGID_11_);}
	.st5{clip-path:url(#SVGID_13_);fill:url(#SVGID_14_);}
	.st6{clip-path:url(#SVGID_16_);fill:url(#SVGID_17_);}
	.st7{clip-path:url(#SVGID_19_);fill:url(#SVGID_20_);}
	.st8{clip-path:url(#SVGID_22_);fill:url(#SVGID_23_);}
	.st9{clip-path:url(#SVGID_22_);fill:url(#SVGID_24_);}
	.st10{clip-path:url(#SVGID_22_);fill:url(#SVGID_25_);}
	.st11{clip-path:url(#SVGID_22_);fill:url(#SVGID_26_);}
	.st12{clip-path:url(#SVGID_22_);fill:url(#SVGID_27_);}
	.st13{clip-path:url(#SVGID_22_);fill:url(#SVGID_28_);}
</style>
<metadata>
	<sfw  xmlns="&ns_sfw;">
		<slices></slices>
		<sliceSourceBounds  bottomLeftOrigin="true" height="287.9997" width="500.0003" x="-38.1345" y="262.1343"></sliceSourceBounds>
		<optimizationSettings>
			<targetSettings  fileFormat="PNG24Format" targetSettingsID="0">
				<PNG24Format  filtered="false" interlaced="false" matteColor="#FFFFFF" noMatteColor="false" transparency="true">
					</PNG24Format>
			</targetSettings>
		</optimizationSettings>
	</sfw>
</metadata>
<path class="st0" d="M-96.7478-0.266l77.0129,77.0129l-38.5062,38.5062L-173.7603-0.266 M-212.2665,115.2527l77.0129,77.0128
	l38.5062-38.5062L-212.2665,38.2403 M-58.2412,115.2531l-38.5062,38.5062"/>
<g>
	<defs>
		<path id="SVGID_1_" d="M-36,192h-160c-8.8366,0-16-7.1634-16-16V16c0-8.8366,7.1634-16,16-16h160c8.8366,0,16,7.1634,16,16v160
			C-20,184.8366-27.1634,192-36,192z"/>
	</defs>
	<clipPath id="SVGID_2_">
		<use xlink:href="#SVGID_1_"  style="overflow:visible;"/>
	</clipPath>
	<g class="st1">
		<defs>
			<polygon id="SVGID_3_" points="-96.8006,150.7791 -61.2214,115.1999 -176.4213,0 -212,0 -212,35.5797 			"/>
		</defs>
		<clipPath id="SVGID_4_">
			<use xlink:href="#SVGID_3_"  style="overflow:visible;"/>
		</clipPath>
		
			<linearGradient id="SVGID_5_" gradientUnits="userSpaceOnUse" x1="405.7491" y1="-62.6014" x2="595.8188" y2="-62.6014" gradientTransform="matrix(-0.7071 -0.7071 0.7071 -0.7071 253.5731 377.0419)">
			<stop  offset="0" style="stop-color:#FFD903"/>
			<stop  offset="1" style="stop-color:#FFFBA8"/>
		</linearGradient>
		<polygon class="st2" points="-192.8004,-19.1996 -58.4007,115.1999 -96.8006,153.5998 -231.2002,19.2002 		"/>
	</g>
	<g class="st1">
		<defs>
			<polygon id="SVGID_6_" points="-20,73.9802 -20,0 -93.9802,0 			"/>
		</defs>
		<clipPath id="SVGID_7_">
			<use xlink:href="#SVGID_6_"  style="overflow:visible;"/>
		</clipPath>
		
			<linearGradient id="SVGID_8_" gradientUnits="userSpaceOnUse" x1="405.7491" y1="46.0098" x2="514.3608" y2="46.0098" gradientTransform="matrix(-0.7071 -0.7071 0.7071 -0.7071 253.5731 377.0419)">
			<stop  offset="0.0037" style="stop-color:#960000"/>
			<stop  offset="1" style="stop-color:#F97A62"/>
		</linearGradient>
		<polygon class="st3" points="-58.4012,-38.3999 18.399,38.4002 -20.0009,76.8001 -96.801,0 		"/>
	</g>
	<g class="st1">
		<defs>
			<polygon id="SVGID_9_" points="-58.4006,112.3791 -22.8219,76.7999 -99.6218,0 -170.7797,0 			"/>
		</defs>
		<clipPath id="SVGID_10_">
			<use xlink:href="#SVGID_9_"  style="overflow:visible;"/>
		</clipPath>
		
			<linearGradient id="SVGID_11_" gradientUnits="userSpaceOnUse" x1="405.7491" y1="-8.2958" x2="568.6664" y2="-8.2958" gradientTransform="matrix(-0.7071 -0.7071 0.7071 -0.7071 253.5731 377.0419)">
			<stop  offset="0" style="stop-color:#FF5F11"/>
			<stop  offset="1" style="stop-color:#FFAF00"/>
		</linearGradient>
		<polygon class="st4" points="-135.2009,-38.3999 -20.0009,76.8001 -58.4007,115.1999 -173.6008,0 		"/>
	</g>
	<g class="st1">
		<defs>
			<polygon id="SVGID_12_" points="-99.6214,153.5999 -212,41.2213 -212,112.3791 -135.2005,189.1786 			"/>
		</defs>
		<clipPath id="SVGID_13_">
			<use xlink:href="#SVGID_12_"  style="overflow:visible;"/>
		</clipPath>
		
			<linearGradient id="SVGID_14_" gradientUnits="userSpaceOnUse" x1="405.7491" y1="-116.907" x2="568.6664" y2="-116.907" gradientTransform="matrix(-0.7071 -0.7071 0.7071 -0.7071 253.5731 377.0419)">
			<stop  offset="0" style="stop-color:#07642A"/>
			<stop  offset="1" style="stop-color:#B7DE0A"/>
		</linearGradient>
		<polygon class="st5" points="-212.0006,38.3998 -96.8006,153.5998 -135.2004,191.9996 -250.4004,76.7997 		"/>
	</g>
	<g class="st1">
		<defs>
			<polygon id="SVGID_15_" points="-132.3803,192 -20,192 -20,79.6197 			"/>
		</defs>
		<clipPath id="SVGID_16_">
			<use xlink:href="#SVGID_15_"  style="overflow:visible;"/>
		</clipPath>
		
			<linearGradient id="SVGID_17_" gradientUnits="userSpaceOnUse" x1="-11.9499" y1="508.5485" x2="69.509" y2="508.5485" gradientTransform="matrix(0.7071 0.7071 -0.4243 0.4243 146.6089 -72.9086)">
			<stop  offset="0" style="stop-color:#1B1E1D"/>
			<stop  offset="1" style="stop-color:#000000"/>
		</linearGradient>
		<polygon class="st6" points="-20.0005,76.8004 37.5998,134.4004 -77.5999,249.5998 -135.2003,191.9998 		"/>
	</g>
	<g class="st1">
		<defs>
			<polygon id="SVGID_18_" points="-212,118.0207 -212,192 -138.0207,192 			"/>
		</defs>
		<clipPath id="SVGID_19_">
			<use xlink:href="#SVGID_18_"  style="overflow:visible;"/>
		</clipPath>
		
			<linearGradient id="SVGID_20_" gradientUnits="userSpaceOnUse" x1="-120.5621" y1="617.1602" x2="-11.9503" y2="617.1602" gradientTransform="matrix(0.7071 0.7071 -0.7071 0.7071 290.4479 -216.7484)">
			<stop  offset="0" style="stop-color:#5A5E5E"/>
			<stop  offset="1" style="stop-color:#1B1E1D"/>
		</linearGradient>
		<polygon class="st7" points="-212.0006,115.1995 -135.2004,191.9996 -173.6003,230.3995 -250.4004,153.5994 		"/>
	</g>
</g>
<g>
	<defs>
		<path id="SVGID_21_" d="M176,192H16c-8.8366,0-16-7.1634-16-16V16C0,7.1634,7.1634,0,16,0h160c8.8366,0,16,7.1634,16,16v160
			C192,184.8366,184.8366,192,176,192z"/>
	</defs>
	<clipPath id="SVGID_22_">
		<use xlink:href="#SVGID_21_"  style="overflow:visible;"/>
	</clipPath>
	
		<linearGradient id="SVGID_23_" gradientUnits="userSpaceOnUse" x1="255.8424" y1="87.3052" x2="445.9122" y2="87.3052" gradientTransform="matrix(-0.7071 -0.7071 0.7071 -0.7071 253.5731 377.0419)">
		<stop  offset="0" style="stop-color:#FFD903"/>
		<stop  offset="1" style="stop-color:#FFFBA8"/>
	</linearGradient>
	<polygon class="st8" points="19.1996,-19.1996 153.5993,115.1999 115.1994,153.5998 -19.2002,19.2002 	"/>
	
		<linearGradient id="SVGID_24_" gradientUnits="userSpaceOnUse" x1="255.8424" y1="195.9164" x2="364.4542" y2="195.9164" gradientTransform="matrix(-0.7071 -0.7071 0.7071 -0.7071 253.5731 377.0419)">
		<stop  offset="0.0037" style="stop-color:#960000"/>
		<stop  offset="1" style="stop-color:#F97A62"/>
	</linearGradient>
	<polygon class="st9" points="153.5988,-38.3999 230.399,38.4002 191.9991,76.8001 115.199,0 	"/>
	
		<linearGradient id="SVGID_25_" gradientUnits="userSpaceOnUse" x1="255.8424" y1="141.6108" x2="418.7598" y2="141.6108" gradientTransform="matrix(-0.7071 -0.7071 0.7071 -0.7071 253.5731 377.0419)">
		<stop  offset="0" style="stop-color:#FF5F11"/>
		<stop  offset="1" style="stop-color:#FFAF00"/>
	</linearGradient>
	<polygon class="st10" points="76.7991,-38.3999 191.9991,76.8001 153.5993,115.1999 38.3992,0 	"/>
	
		<linearGradient id="SVGID_26_" gradientUnits="userSpaceOnUse" x1="255.8424" y1="32.9996" x2="418.7598" y2="32.9996" gradientTransform="matrix(-0.7071 -0.7071 0.7071 -0.7071 253.5731 377.0419)">
		<stop  offset="0" style="stop-color:#07642A"/>
		<stop  offset="1" style="stop-color:#B7DE0A"/>
	</linearGradient>
	<polygon class="st11" points="-0.0006,38.3998 115.1994,153.5998 76.7996,191.9996 -38.4004,76.7997 	"/>
	
		<linearGradient id="SVGID_27_" gradientUnits="userSpaceOnUse" x1="137.9564" y1="258.7045" x2="219.4153" y2="258.7045" gradientTransform="matrix(0.7071 0.7071 -0.4243 0.4243 146.6089 -72.9086)">
		<stop  offset="0" style="stop-color:#1B1E1D"/>
		<stop  offset="1" style="stop-color:#000000"/>
	</linearGradient>
	<polygon class="st12" points="191.9995,76.8004 249.5998,134.4004 134.4001,249.5998 76.7997,191.9998 	"/>
	
		<linearGradient id="SVGID_28_" gradientUnits="userSpaceOnUse" x1="29.3445" y1="467.2535" x2="137.9563" y2="467.2535" gradientTransform="matrix(0.7071 0.7071 -0.7071 0.7071 290.4479 -216.7484)">
		<stop  offset="0" style="stop-color:#5A5E5E"/>
		<stop  offset="1" style="stop-color:#1B1E1D"/>
	</linearGradient>
	<polygon class="st13" points="-0.0006,115.1995 76.7996,191.9996 38.3997,230.3995 -38.4004,153.5994 	"/>
</g>
</svg>
