<?xml version="1.0" encoding="utf-8"?>
<!-- Generator: Adobe Illustrator 25.1.0, SVG Export Plug-In . SVG Version: 6.00 Build 0)  -->
<!DOCTYPE svg PUBLIC "-//W3C//DTD SVG 1.1//EN" "http://www.w3.org/Graphics/SVG/1.1/DTD/svg11.dtd" [
	<!ENTITY ns_extend "http://ns.adobe.com/Extensibility/1.0/">
	<!ENTITY ns_ai "http://ns.adobe.com/AdobeIllustrator/10.0/">
	<!ENTITY ns_graphs "http://ns.adobe.com/Graphs/1.0/">
	<!ENTITY ns_vars "http://ns.adobe.com/Variables/1.0/">
	<!ENTITY ns_imrep "http://ns.adobe.com/ImageReplacement/1.0/">
	<!ENTITY ns_sfw "http://ns.adobe.com/SaveForWeb/1.0/">
	<!ENTITY ns_custom "http://ns.adobe.com/GenericCustomNamespace/1.0/">
	<!ENTITY ns_adobe_xpath "http://ns.adobe.com/XPath/1.0/">
]>
<svg version="1.1" id="Layer_1" xmlns:x="&ns_extend;" xmlns:i="&ns_ai;" xmlns:graph="&ns_graphs;"
	 xmlns="http://www.w3.org/2000/svg" xmlns:xlink="http://www.w3.org/1999/xlink" x="0px" y="0px" viewBox="0 0 78 68"
	 style="enable-background:new 0 0 78 68;" xml:space="preserve">
<metadata>
	<sfw  xmlns="&ns_sfw;">
		<slices></slices>
		<sliceSourceBounds  bottomLeftOrigin="true" height="66.0368" width="76.1223" x="1207.0132" y="-405.8613"></sliceSourceBounds>
	</sfw>
</metadata>
<path d="M43.424,14.4199c3.0009,2.9455,4.6846,6.1987,4.8981,10.0605c0.4513,8.1634-5.7325,15.2555-14.0451,16.3447
	c-8.9862,1.1774-17.3143-3.9724-19.0203-12.5499c-0.2609-1.3117-1.1007-1.3833-2.1086-1.3897
	c-3.4788-0.0222-6.9578-0.0362-10.4362-0.0914c-0.5837-0.0093-1.5264,0.2827-1.4849-0.7623
	c0.0355-0.8946,0.8637-0.6056,1.4177-0.6067c3.598-0.0074,7.1963-0.023,10.7939,0.0162c0.9912,0.0108,1.5894-0.2542,1.6831-1.3349
	c0.8697-10.0262,12.2823-17.1885,23.2912-12.6477c3.3836,1.3957,6.3059,1.5487,9.5994-0.002
	c3.3108-1.5589,7.6154,0.1321,9.486,3.3605c1.8092,3.1223,1.0125,6.6125-2.0686,9.0624c-3.2309,2.569-4.2644,6.2472-2.7367,9.7396
	c1.5757,3.6021,5.8926,5.9551,9.7257,5.2987c3.571-0.6115,6.2896-2.3947,7.4883-5.9143c1.2141-3.5649-0.0063-6.5332-2.5741-9.128
	c-2.5003-2.5266-2.7976-5.1968-0.9942-7.543c1.7351-2.2575,5.1381-2.951,7.8121-1.5465c0.5262,0.2764,1.51,0.4683,1.1251,1.3107
	c-0.3762,0.8235-1.1165,0.2774-1.6985,0.0076c-0.9888-0.4585-2.0167-0.8106-3.1184-0.6313
	c-1.6482,0.2682-2.9211,1.1149-3.5139,2.7225c-0.5997,1.6265-0.1261,3.0413,1.0324,4.288c1.8974,2.0418,3.6102,4.209,3.7635,7.1525
	c0.2621,5.0347-2.8585,9.0477-7.9334,10.2832c-6.1324,1.4929-12.1588-2.2625-13.076-8.2856
	c-0.5303-3.4826,0.816-6.3108,3.5697-8.501c3.3895-2.6958,3.6474-6.8811,0.5517-9.3688c-1.9712-1.5841-4.2527-1.9079-6.6047-1.0712
	C46.744,13.2278,45.3136,13.9762,43.424,14.4199z"/>
<path d="M37.9696,2.2582c-6.7731-0.113-17.4481,2.8017-27.8227,7.1001c-2.3742,0.9837-4.7482,1.9692-7.1404,2.9076
	c-0.4665,0.183-1.1599,0.4006-1.4118-0.2657c-0.2765-0.7313,0.4555-0.8492,0.9264-1.0396
	c6.8114-2.7547,13.5624-5.6934,20.6967-7.5421c9.2459-2.3959,18.6049-2.9458,28.1353-1.9962
	c8.442,0.8411,16.4074,3.1164,24.0894,6.5819c0.3267,0.1474,0.6609,0.2798,0.9803,0.4414c0.3721,0.1882,0.8324,0.3931,0.5517,0.9175
	c-0.2248,0.4198-0.6388,0.4746-1.0928,0.2802c-1.3728-0.5879-2.7625-1.1374-4.1291-1.7391
	C62.4428,3.8048,52.6281,2.3499,37.9696,2.2582z"/>
<path d="M43.538,49.8368c-10.8828,0.5739-21.3308-2.5401-31.5658-6.6158c-3.1715-1.2629-6.4001-2.309-9.7119-3.1133
	c-0.5948-0.1444-1.4317-0.3199-1.3093-0.9571c0.1696-0.8825,1.1144-0.528,1.6645-0.3897c4.4099,1.1086,8.6727,2.6634,12.885,4.3657
	c11.7655,4.7547,23.9668,6.5112,36.5913,5.2195c7.4862-0.7659,14.6548-2.8459,21.6994-5.4051
	c0.672-0.2441,1.3444-0.4966,2.0343-0.6781c0.3162-0.0832,0.7653-0.1506,0.8903,0.3166c0.1129,0.4222-0.2052,0.6643-0.5477,0.8087
	c-0.7703,0.3247-1.5454,0.6404-2.33,0.9284C64.1599,47.8684,54.2605,50.2355,43.538,49.8368z"/>
<path d="M61.2139,26.7914c2.149-0.0183,3.9791,1.5726,4.0233,3.4973c0.0482,2.102-1.8106,3.8265-4.1038,3.8074
	c-2.2174-0.0185-3.8186-1.5119-3.8535-3.5941C57.2441,28.3752,58.9024,26.8111,61.2139,26.7914z M63.8856,30.4609
	c0.0195-1.4816-1.0661-2.5595-2.6064-2.5879c-1.4841-0.0273-2.7759,1.0744-2.8436,2.425c-0.0717,1.4288,1.1636,2.603,2.7867,2.6489
	C62.7726,32.9908,63.8657,31.9705,63.8856,30.4609z"/>
<path d="M50.5545,21.2743c-1.6023,0.025-3.0764-1.3034-3.1473-2.8363c-0.0723-1.5603,1.4652-3.0328,3.149-3.016
	c1.6268,0.0162,3.1265,1.4156,3.096,2.8888C53.6221,19.753,52.0564,21.2509,50.5545,21.2743z M52.0186,18.3552
	c0.0104-1.0365-0.5963-1.5703-1.5466-1.5573c-0.8524,0.0117-1.4474,0.4937-1.453,1.4671c-0.006,1.0483,0.6239,1.5868,1.5484,1.5868
	C51.4147,19.8518,52.0081,19.3238,52.0186,18.3552z"/>
<g>
	<path d="M20.4848,53.9671c0.3208,0,0.5405,0.0913,0.6597,0.2739c0.1187,0.1836,0.105,0.418-0.0415,0.7012l-4.0801,8.0371
		c-0.2017,0.4033-0.5269,0.6045-0.9756,0.6045h-2.1157c-0.4487,0-0.7739-0.2012-0.9751-0.6045l-4.0669-8.0371
		c-0.1465-0.2832-0.1626-0.5176-0.0479-0.7012c0.1143-0.1826,0.3315-0.2739,0.6523-0.2739h2.3491
		c0.458,0,0.7739,0.2056,0.9482,0.6177l2.2944,4.9873l2.2939-4.9873c0.1738-0.4121,0.4946-0.6177,0.9619-0.6177H20.4848z"/>
	<path d="M22.5868,63.5838c-0.5498,0-0.8247-0.2744-0.8247-0.8242v-2.0332c0-0.5498,0.2749-0.8242,0.8247-0.8242h2.3076
		c0.5498,0,0.8247,0.2744,0.8247,0.8242v2.0332c0,0.5498-0.2749,0.8242-0.8247,0.8242H22.5868z"/>
	<path d="M30.8295,61.3036v-0.1924c0-0.4951,0.2476-0.7422,0.7422-0.7422h2.3081c0.3296,0,0.4941,0.165,0.4941,0.4951v0.0273
		c0,0.1367,0.0298,0.2314,0.0894,0.2812c0.0596,0.0508,0.1763,0.0752,0.3506,0.0752h3.6816c0.1738,0,0.291-0.0293,0.3506-0.0889
		s0.0894-0.1758,0.0894-0.3506V60.534c0-0.165-0.0298-0.2744-0.0894-0.3301c-0.0596-0.0547-0.1768-0.0908-0.3506-0.1094
		l-5.248-0.3027c-0.8057-0.0547-1.3872-0.2539-1.7446-0.5977c-0.3574-0.3428-0.5356-0.9043-0.5356-1.6826v-1.2637
		c0-0.7969,0.1831-1.376,0.5493-1.7383c0.3662-0.3618,0.9434-0.5425,1.731-0.5425h6.897c0.7876,0,1.3643,0.1807,1.731,0.5425
		c0.3662,0.3623,0.5493,0.9414,0.5493,1.7383v0.082c0,0.4951-0.2471,0.7422-0.7417,0.7422h-2.3906
		c-0.2744,0-0.4121-0.1377-0.4121-0.4121v-0.0273c0-0.1191-0.0322-0.2041-0.0962-0.2549c-0.064-0.0498-0.1787-0.0752-0.3433-0.0752
		h-3.3521c-0.1743,0-0.291,0.0293-0.3506,0.0889s-0.0894,0.1768-0.0894,0.3506v0.165c0,0.165,0.0298,0.2744,0.0894,0.3301
		c0.0596,0.0547,0.1763,0.0908,0.3506,0.1094l5.248,0.3027c0.8057,0.0547,1.3872,0.2539,1.7446,0.5977
		c0.3569,0.3428,0.5356,0.9043,0.5356,1.6826v1.374c0,0.7969-0.1831,1.376-0.5493,1.7373c-0.3667,0.3623-0.9434,0.543-1.731,0.543
		h-7.2266c-0.7876,0-1.3647-0.1807-1.731-0.543C31.0126,62.6795,30.8295,62.1004,30.8295,61.3036z"/>
	<path d="M44.4306,63.5838c-0.5498,0-0.8247-0.2744-0.8247-0.8242v-2.0332c0-0.5498,0.2749-0.8242,0.8247-0.8242h2.3076
		c0.5498,0,0.8247,0.2744,0.8247,0.8242v2.0332c0,0.5498-0.2749,0.8242-0.8247,0.8242H44.4306z"/>
	<path d="M55.393,63.5838c-0.98,0-1.7056-0.2334-2.1772-0.7002c-0.4722-0.4678-0.7075-1.1953-0.7075-2.1846v-0.5498
		c0-0.5498,0.2744-0.8242,0.8242-0.8242h2.0332c0.458,0,0.687,0.2285,0.687,0.6865v0.0273c0,0.2207,0.0454,0.3711,0.1372,0.4541
		c0.0913,0.082,0.2563,0.123,0.4946,0.123h2.3633c0.2378,0,0.4028-0.0459,0.4941-0.1367c0.0918-0.0918,0.1377-0.2568,0.1377-0.4951
		v-5.1934c0-0.5498,0.2749-0.8237,0.8242-0.8237h2.0332c0.5498,0,0.8242,0.2739,0.8242,0.8237v5.9082
		c0,0.9893-0.2358,1.7168-0.7075,2.1846c-0.4717,0.4668-1.1973,0.7002-2.1772,0.7002H55.393z"/>
	<path d="M65.2299,63.5838c-0.5498,0-0.8247-0.2744-0.8247-0.8242v-2.0332c0-0.5498,0.2749-0.8242,0.8247-0.8242h2.3076
		c0.5498,0,0.8247,0.2744,0.8247,0.8242v2.0332c0,0.5498-0.2749,0.8242-0.8247,0.8242H65.2299z"/>
</g>
<g>
</g>
<g>
</g>
<g>
</g>
<g>
</g>
<g>
</g>
<g>
</g>
</svg>
