<?xml version="1.0" encoding="UTF-8" standalone="no"?>
<svg
   xmlns:dc="http://purl.org/dc/elements/1.1/"
   xmlns:cc="http://creativecommons.org/ns#"
   xmlns:rdf="http://www.w3.org/1999/02/22-rdf-syntax-ns#"
   xmlns:svg="http://www.w3.org/2000/svg"
   xmlns="http://www.w3.org/2000/svg"
   xmlns:sodipodi="http://sodipodi.sourceforge.net/DTD/sodipodi-0.dtd"
   xmlns:inkscape="http://www.inkscape.org/namespaces/inkscape"
   viewBox="0 0 533.33 533.33"
   id="svg3402"
   version="1.1"
   inkscape:version="0.91 r13725"
   sodipodi:docname="award.svg"
   inkscape:export-filename="/home/robertb/Documents/research/2017/VINCI2017/website/public_html/images/award.png"
   inkscape:export-xdpi="3.3834395"
   inkscape:export-ydpi="3.3834395">
  <metadata
     id="metadata3428">
    <rdf:RDF>
      <cc:Work
         rdf:about="">
        <dc:format>image/svg+xml</dc:format>
        <dc:type
           rdf:resource="http://purl.org/dc/dcmitype/StillImage" />
        <dc:title></dc:title>
        <cc:license
           rdf:resource="http://creativecommons.org/publicdomain/zero/1.0/" />
      </cc:Work>
      <cc:License
         rdf:about="http://creativecommons.org/publicdomain/zero/1.0/">
        <cc:permits
           rdf:resource="http://creativecommons.org/ns#Reproduction" />
        <cc:permits
           rdf:resource="http://creativecommons.org/ns#Distribution" />
        <cc:permits
           rdf:resource="http://creativecommons.org/ns#DerivativeWorks" />
      </cc:License>
    </rdf:RDF>
  </metadata>
  <defs
     id="defs3426" />
  <sodipodi:namedview
     pagecolor="#ffffff"
     bordercolor="#666666"
     borderopacity="1"
     objecttolerance="10"
     gridtolerance="10"
     guidetolerance="10"
     inkscape:pageopacity="0"
     inkscape:pageshadow="2"
     inkscape:window-width="1680"
     inkscape:window-height="1026"
     id="namedview3424"
     showgrid="false"
     inkscape:zoom="1.606885"
     inkscape:cx="314.05643"
     inkscape:cy="266.66501"
     inkscape:window-x="0"
     inkscape:window-y="24"
     inkscape:window-maximized="1"
     inkscape:current-layer="svg3402" />
  <g
     id="g4338"
     transform="translate(-1.4612753,7.1038761)"
     inkscape:export-xdpi="3.3834395"
     inkscape:export-ydpi="3.3834395">
    <path
       inkscape:export-ydpi="3.5526121"
       inkscape:export-xdpi="3.5526121"
       sodipodi:nodetypes="ccccccscc"
       d="m 68.384192,368.65781 c 0,0 0.790859,0.9464 32.948648,-28.73804 16.45355,-24.14724 102.85882,-50.11189 102.85882,-50.11189 l 66.69406,30.12157 c 0,0 -43.21432,78.98864 -95.49586,130.11592 -26.09515,26.53507 -104.290276,65.18702 -104.290276,65.18702 0,0 19.432647,-91.51948 15.848307,-93.04635 C 50.054155,406.46993 21.362777,409.65212 6.7774391,405.37768 Z"
       id="path3410"
       inkscape:connector-curvature="0"
       style="fill:#00007f;fill-rule:evenodd;stroke:#000000;stroke-width:3.75" />
    <path
       inkscape:export-ydpi="3.5526121"
       inkscape:export-xdpi="3.5526121"
       sodipodi:nodetypes="cccccsccccc"
       d="m 277.77885,321.56143 c 0.0442,0.97303 65.76713,-33.21158 64.79413,-33.16739 -0.973,0.0442 90.77863,32.36242 116.42893,60.44476 11.0495,11.26395 15.15613,15.39678 28.44918,24.72631 11.66947,9.62084 42.2802,27.37507 42.2802,27.37507 0,0 -79.50087,29.20612 -81.57941,26.37549 -2.07855,-2.83062 -0.32921,41.19021 2.13111,57.15957 1.52445,9.15503 1.39111,7.02287 5.76107,32.70947 0,0 -78.98206,-49.00712 -113.34133,-97.17207 -39.53759,-54.75582 -63.94911,-98.50048 -64.92211,-98.45629 z"
       id="path3412"
       inkscape:connector-curvature="0"
       style="fill:#00007f;fill-rule:evenodd;stroke:#000000;stroke-width:3.75" />
    <g
       inkscape:export-ydpi="3.5526121"
       inkscape:export-xdpi="3.5526121"
       transform="matrix(1.3,0,0,1.3,-70.22804,-4.864772)"
       id="g4298">
      <path
         d="M 430.69322,157.6259 C 426.6913,69.496711 348.73692,1.4428965 256.57889,5.6277675 164.41886,9.8127292 92.95507,84.648579 96.957129,172.78076 100.90193,260.95258 178.877,329.06552 271.07599,324.87879 c 92.201,-4.18674 163.68095,-79.08547 159.61723,-167.25289 l -166.86806,7.57713 166.86805,-7.57743 z"
         id="path3414"
         inkscape:connector-curvature="0"
         style="fill:none;fill-rule:evenodd;stroke:#000000;stroke-width:6.25" />
      <path
         style="fill:#00007f;fill-rule:evenodd;stroke-width:1.25"
         inkscape:connector-curvature="0"
         id="path3416"
         d="M 427.79071,158.73871 C 423.83756,71.683417 347.01175,4.4542555 256.19234,8.5783401 165.37593,12.702289 94.956461,86.617817 98.909618,173.67311 102.8065,260.76999 179.65216,328.05932 270.51253,323.93337 361.3699,319.80765 431.79559,245.83069 427.79071,158.73871 l -164.44055,7.467 164.44054,-7.4672 z" />
      <polygon
         points="351.33,61.096 395.56,71.252 394.33,115.42 427.41,145.72 403.64,183.38 416.7,225.7 376.75,246.75 366.31,289.75 320.88,288.56 289.73,320.72 251,297.61 207.48,310.31 185.83,271.47 141.61,261.31 142.83,217.14 109.76,186.84 133.53,149.19 120.46,106.87 160.41,85.814 170.86,42.812 216.28,44.002 247.44,11.839 286.16,34.955 329.68,22.249 "
         id="polygon3420"
         style="fill:#007fff;fill-rule:evenodd;stroke:#000000;stroke-width:3.94000006"
         transform="matrix(0.99897058,-0.04536298,0.04536298,0.99897058,-11.052299,11.234087)" />
      <path
         style="fill:#007fff;fill-opacity:1;stroke:#000000;stroke-width:3.75;stroke-miterlimit:4;stroke-dasharray:none;stroke-opacity:1"
         d="m 255.48082,291.8866 c -13.15778,-0.88193 -29.03185,-4.49582 -40.81963,-9.293 -34.1974,-13.91706 -61.69716,-43.31923 -72.70378,-77.73338 -6.21724,-19.43932 -7.75416,-38.939 -4.61241,-58.52018 7.07438,-44.09162 37.45109,-81.498045 79.36667,-97.733544 14.02426,-5.432133 25.33449,-7.769905 41.04184,-8.483172 15.28965,-0.694298 26.66079,0.54629 40.58438,4.427739 46.31579,12.911369 81.4319,50.973846 90.50185,98.095257 1.65738,8.61064 2.4277,25.67456 1.57248,34.82689 -3.83226,40.99804 -27.77763,77.63079 -64.03714,97.96706 -11.8589,6.65111 -23.86804,11.19151 -37.05314,14.00902 -6.95542,1.4863 -26.75453,2.91227 -33.84083,2.4373 l -1e-5,0 z"
         id="path4258"
         inkscape:connector-curvature="0" />
    </g>
  </g>
</svg>
